<?xml version="1.0" encoding="utf-8"?>
<!-- Generator: Adobe Illustrator 22.0.1, SVG Export Plug-In . SVG Version: 6.00 Build 0)  -->
<svg version="1.1" id="Layer_1" xmlns="http://www.w3.org/2000/svg" xmlns:xlink="http://www.w3.org/1999/xlink" x="0px" y="0px"
	 width="549.9px" height="212.2px" viewBox="0 0 549.9 212.2" style="enable-background:new 0 0 549.9 212.2;" xml:space="preserve"
	>
<style type="text/css">
	.st0{fill:#DB2D27;}
	.st1{fill:#FFFFFF;}
	.st2{fill:#09783D;}
	.st3{fill:#F89A35;}
	.st4{fill:#EF4535;}
	.st5{fill:#B4B4B4;}
	.st6{fill:#989898;}
	.st7{fill:#010101;}
	.st8{fill:#515E73;}
	.st9{opacity:0.2;}
	.st10{fill:#231F20;}
	.st11{fill:#4F4F50;}
	.st12{fill:#939292;}
	.st13{fill:none;stroke:#303030;stroke-linecap:round;stroke-linejoin:round;}
	.st14{fill:none;stroke:#303030;stroke-width:2;stroke-linecap:round;stroke-linejoin:round;}
	.st15{fill:#96CD7B;}
	.st16{fill:#F26F6E;}
	.st17{fill:#CCCCCC;}
	.st18{fill:none;stroke:#B4B4B4;stroke-linecap:round;stroke-linejoin:round;}
	.st19{fill:none;stroke:#B4B4B4;stroke-width:2;stroke-linecap:round;stroke-linejoin:round;}
	.st20{fill:#222222;}
	.st21{fill:none;stroke:#222222;stroke-width:2;stroke-linecap:round;stroke-linejoin:round;}
	.st22{fill:#222222;stroke:#222222;stroke-miterlimit:10;}
	.st23{fill:none;stroke:#222222;stroke-miterlimit:10;}
	.st24{fill:none;stroke:#FFFFFF;stroke-width:2;stroke-linecap:round;stroke-linejoin:round;}
	.st25{fill:#505050;}
	.st26{fill:none;stroke:#222222;stroke-linecap:round;stroke-linejoin:round;}
	.st27{font-family:'Arial-BoldMT';}
	.st28{font-size:10.26px;}
	.st29{fill:none;stroke:#DB2D27;stroke-width:1.5;stroke-miterlimit:10;}
	.st30{fill:#DB2F27;}
	.st31{fill:none;stroke:#DB2D27;stroke-linecap:round;stroke-miterlimit:10;}
	.st32{fill:none;stroke:#505050;stroke-width:1.5;stroke-linecap:round;stroke-miterlimit:10;}
</style>
<title>icon_sprite_std</title>
<circle class="st0" cx="414.2" cy="101" r="15"/>
<circle class="st0" cx="215" cy="15.9" r="15"/>
<circle class="st1" cx="215" cy="15.9" r="13.5"/>
<g id="Exel_download">
	<path class="st2" d="M216.8,19.5h-1l-0.9-1.5l-0.9,1.5h-1l1.4-2.1l-1.3-2h0.9l0.9,1.5l0.9-1.5h0.9l-1.3,2L216.8,19.5z"/>
	<path class="st2" d="M219.7,17.6c-1.5,0-2.8,1.3-2.8,2.8s1.3,2.8,2.8,2.8s2.8-1.3,2.8-2.8l0,0C222.5,18.9,221.2,17.7,219.7,17.6z
		 M220.9,19.6L220.9,19.6l-1,1.4c-0.1,0.2-0.3,0.2-0.5,0.1l-0.1-0.1l-1-1.4c-0.1-0.2,0-0.4,0.1-0.5h0.7v-0.8c0-0.2,0.2-0.4,0.4-0.4
		h0.2c0.2,0,0.4,0.2,0.4,0.4l0,0v0.8h0.5c0.2,0,0.4,0.2,0.4,0.4L220.9,19.6L220.9,19.6z"/>
	<path class="st3" d="M217.3,23.1"/>
	<path class="st3" d="M220.8,17.3"/>
	<path class="st2" d="M220.5,13.4l-4.7-4.7c-0.2-0.2-0.5-0.4-0.8-0.4h-4.8c-0.6,0-1.2,0.5-1.2,1.1v0.1l0,0v12.3
		c0,0.7,0.5,1.2,1.2,1.2h7.1l-0.5-0.5h-6.6c-0.4,0-0.7-0.3-0.7-0.7l0,0l0,0V9.6c0-0.4,0.3-0.7,0.7-0.7l0,0h4.8
		c0.2,0,0.4,0.1,0.5,0.2l4.7,4.7c0.1,0.1,0.2,0.3,0.2,0.5v2.6l0.5,0.5v-3C220.9,14,220.8,13.7,220.5,13.4z"/>
	<polyline class="st1" points="220.8,17.3 220.8,17.3 220.4,16.8 	"/>
</g>
<circle class="st0" cx="175" cy="15.9" r="15"/>
<circle class="st1" cx="175" cy="15.9" r="13.5"/>
<g id="Pdf_download">
	<path class="st4" d="M179.4,17.7c0-0.1-0.1-0.1-0.1-0.2c-0.3-0.2-0.7-0.3-1-0.2c-0.4,0-0.8,0-1.2,0.1c-0.2-0.1-0.4-0.2-0.5-0.4
		c-0.4-0.4-0.8-0.9-1-1.5v-0.1c0.1-0.6,0.2-1.2,0.2-1.8v-0.1l0,0c-0.1-0.2-0.2-0.3-0.4-0.3h-0.1c-0.2,0-0.4,0.1-0.4,0.3
		c-0.1,0.8,0,1.6,0.3,2.3l-0.1,0.2c-0.2,0.5-0.4,0.9-0.6,1.4l0,0c-0.2,0.4-0.4,0.7-0.6,1.1l-0.2,0.1l-0.4,0.2
		c-0.5,0.2-0.9,0.7-1.1,1.2c0,0.1,0,0.2,0.1,0.3l0.2,0.1c0.1,0,0.2,0.1,0.3,0.1c0.5,0,1-0.6,1.7-1.9c0.8-0.3,1.7-0.5,2.6-0.6
		c0.6,0.3,1.2,0.6,1.9,0.6h0.2c0.1,0,0.1,0,0.2-0.1L179.4,17.7z M172.4,19.9c0.2-0.4,0.5-0.8,0.9-1.1l0.2-0.2
		C173.3,19.2,172.9,19.6,172.4,19.9L172.4,19.9z M175.3,13.2c0.1,0,0.2,0.4,0.2,0.7s-0.1,0.5-0.2,0.8c-0.1-0.3-0.1-0.7-0.1-1
		C175.2,13.7,175.2,13.2,175.3,13.2z M174.4,18l0.3-0.6l0.6-1.2c0.2,0.4,0.5,0.8,0.9,1.1l0.1,0.1C175.7,17.6,175.1,17.8,174.4,18
		L174.4,18z M179.1,18h-0.3c-0.4,0-0.8-0.1-1.1-0.3h0.5c0.2,0,0.4,0,0.6,0.1C179.2,17.8,179.2,17.9,179.1,18z"/>
	<path class="st4" d="M180.4,17.6c-1.5,0-2.8,1.3-2.8,2.8s1.3,2.8,2.8,2.8s2.8-1.3,2.8-2.8l0,0c0-1.5-1.2-2.8-2.7-2.8H180.4z
		 M181.7,19.6L181.7,19.6l-1,1.4c-0.1,0.2-0.3,0.2-0.5,0.1l-0.1-0.1l-1-1.4c-0.1-0.2,0-0.4,0.1-0.5h0.7v-0.8c0-0.2,0.2-0.4,0.4-0.4
		h0.2c0.2,0,0.4,0.2,0.4,0.4l0,0v0.8h0.5c0.2,0,0.4,0.2,0.4,0.4C181.7,19.5,181.7,19.5,181.7,19.6L181.7,19.6z"/>
	<path class="st3" d="M178,23.1"/>
	<path class="st3" d="M181.6,17.3"/>
	<path class="st4" d="M181.3,13.4l-4.7-4.7c-0.2-0.2-0.5-0.4-0.8-0.4H171c-0.6,0-1.2,0.5-1.2,1.1v0.1l0,0v12.3
		c0,0.7,0.5,1.2,1.2,1.2h7.1l-0.5-0.5H171c-0.4,0-0.7-0.3-0.7-0.7l0,0l0,0V9.6c0-0.4,0.3-0.7,0.7-0.7l0,0h4.8c0.2,0,0.4,0.1,0.5,0.2
		l4.7,4.7c0.1,0.1,0.2,0.3,0.2,0.5v2.6l0.5,0.5v-3C181.6,14.1,181.5,13.7,181.3,13.4z"/>
	<polyline class="st1" points="181.6,17.3 181.6,17.3 181.1,16.8 	"/>
</g>
<circle class="st0" cx="95" cy="15.9" r="15"/>
<circle class="st1" cx="95" cy="15.9" r="13.5"/>
<path class="st0" d="M100.9,11.5l-2.3-2.3h-5.1v1.9h-2.8v10.1h7.4v-1.8h2.8V11.5z M98.6,9.8l1.7,1.7h-1.7V9.8z M91.2,20.7v-9.2h4.2
	v2.3h2.3v6.9H91.2z M95.8,11.7l1.7,1.7h-1.7V11.7z M98.2,18.9v-5.6L95.9,11H94V9.6h4.2v2.3h2.3v6.9L98.2,18.9z"/>
<circle class="st0" cx="15" cy="15.9" r="15"/>
<circle class="st1" cx="15" cy="15.9" r="13.5"/>
<path class="st0" d="M19.8,14.6h-3.6V11c0-0.7-0.5-1.2-1.2-1.2s-1.2,0.5-1.2,1.2l0,0v3.6h-3.6c-0.7,0-1.2,0.5-1.2,1.2
	S9.5,17,10.2,17h3.6v3.6c0,0.7,0.5,1.2,1.2,1.2s1.2-0.5,1.2-1.2V17h3.6c0.6,0,1.2-0.5,1.2-1.1v-0.1C21,15.2,20.4,14.7,19.8,14.6z"/>
<circle class="st0" cx="55" cy="15.9" r="15"/>
<circle class="st1" cx="55" cy="15.9" r="13.5"/>
<path class="st0" d="M53.5,14.6v4.5c0,0.1-0.1,0.2-0.2,0.3h-0.5c-0.1,0-0.2-0.1-0.3-0.2l0,0v-4.5c0-0.1,0.1-0.2,0.2-0.3h0.5
	C53.4,14.3,53.5,14.4,53.5,14.6z M55.5,14.6v4.5c0,0.1-0.1,0.2-0.2,0.3h-0.5c-0.1,0-0.2-0.1-0.3-0.2l0,0v-4.5c0-0.1,0.1-0.2,0.2-0.3
	h0.5C55.4,14.3,55.5,14.4,55.5,14.6z M57.5,14.6v4.5c0,0.1-0.1,0.2-0.2,0.3h-0.5c-0.1,0-0.2-0.1-0.3-0.2l0,0v-4.5
	c0-0.1,0.1-0.2,0.2-0.3h0.5C57.4,14.3,57.5,14.4,57.5,14.6z M58.5,20.3v-7.4h-7v7.7c0,0.1,0.1,0.1,0.1,0.2l0.1,0.1h6.5l0.1-0.1
	c0-0.1,0.1-0.1,0.1-0.2C58.5,20.5,58.5,20.4,58.5,20.3z M53.3,11.9h3.5L56.4,11l-0.1-0.1h-2.5c-0.1,0-0.1,0-0.1,0.1L53.3,11.9z
	 M60.5,12.1v0.5c0,0.1-0.1,0.2-0.2,0.3h-0.8v7.4c0,0.4-0.1,0.8-0.4,1.1c-0.2,0.3-0.5,0.5-0.9,0.5h-6.5c-0.4,0-0.7-0.2-0.9-0.5
	c-0.3-0.3-0.4-0.7-0.4-1.1v-7.4h-0.8c-0.1,0-0.2-0.1-0.3-0.2l0,0v-0.6c0-0.1,0.1-0.2,0.2-0.3h2.4l0.5-1.3c0.1-0.2,0.2-0.4,0.4-0.5
	s0.4-0.2,0.6-0.2h2.5c0.2,0,0.4,0.1,0.6,0.2c0.2,0.1,0.3,0.3,0.4,0.5l0.6,1.3h2.4C60.4,11.8,60.5,11.9,60.5,12.1z"/>
<circle class="st0" cx="135" cy="15.9" r="15"/>
<circle class="st1" cx="135" cy="15.9" r="13.5"/>
<g id="transfer">
	<polygon class="st0" points="141.5,19.8 131.8,19.9 131.8,21.9 128.6,18.9 131.8,15.9 131.8,17.9 141.5,17.8 	"/>
	<polygon class="st0" points="128.5,13.9 138.2,13.8 138.2,15.8 141.4,12.8 138.2,9.9 138.2,11.8 128.5,11.9 	"/>
</g>
<circle class="st5" cx="455" cy="15.9" r="15"/>
<circle class="st1" cx="455" cy="15.9" r="13.5"/>
<g id="Exel_download-2">
	<path class="st6" d="M456.8,19.5h-1l-0.9-1.5l-0.9,1.5h-1l1.4-2.1l-1.3-2h1l0.9,1.5l0.9-1.5h0.9l-1.3,2L456.8,19.5z"/>
	<path class="st6" d="M459.7,17.6c-1.5,0-2.8,1.3-2.8,2.8s1.3,2.8,2.8,2.8s2.8-1.3,2.8-2.8l0,0C462.5,18.9,461.2,17.7,459.7,17.6z
		 M461,19.6L461,19.6l-1,1.4c-0.1,0.2-0.3,0.2-0.5,0.1l-0.1-0.1l-1-1.4c-0.1-0.2,0-0.4,0.1-0.5h0.7v-0.8c0-0.2,0.2-0.4,0.4-0.4h0.2
		c0.2,0,0.4,0.2,0.4,0.4v0.8h0.5c0.2,0,0.4,0.2,0.4,0.4C461,19.5,461,19.5,461,19.6z"/>
	<path class="st6" d="M457.3,23.1"/>
	<path class="st6" d="M460.8,17.3"/>
	<path class="st6" d="M460.5,13.4l-4.7-4.7c-0.2-0.2-0.5-0.4-0.8-0.4h-4.8c-0.6,0-1.2,0.5-1.2,1.1v0.1l0,0v12.3
		c0,0.7,0.5,1.2,1.2,1.2h7.1l-0.5-0.5h-6.6c-0.4,0-0.7-0.3-0.7-0.7l0,0V9.6c0-0.4,0.3-0.7,0.7-0.7l0,0h4.8c0.2,0,0.4,0.1,0.5,0.2
		l4.7,4.7c0.1,0.1,0.2,0.3,0.2,0.5v2.6l0.5,0.5v-3C460.9,14,460.8,13.7,460.5,13.4z"/>
	<polyline class="st6" points="460.8,17.3 460.8,17.3 460.4,16.8 	"/>
</g>
<circle class="st5" cx="415" cy="15.9" r="15"/>
<circle class="st1" cx="415" cy="15.9" r="13.5"/>
<g id="Pdf_download-2">
	<path class="st6" d="M419.4,17.7c0-0.1-0.1-0.1-0.1-0.2c-0.3-0.2-0.7-0.3-1-0.2c-0.4,0-0.8,0-1.2,0.1c-0.2-0.1-0.4-0.2-0.5-0.4
		c-0.4-0.4-0.8-0.9-1-1.5v-0.1c0.1-0.6,0.2-1.2,0.2-1.8v-0.1l0,0c-0.1-0.2-0.2-0.3-0.4-0.3h-0.1c-0.2,0-0.4,0.1-0.5,0.3
		c-0.1,0.8,0,1.6,0.3,2.3L415,16c-0.2,0.5-0.4,0.9-0.6,1.4l0,0c-0.2,0.4-0.4,0.7-0.6,1.1l-0.2,0.1l-0.4,0.2
		c-0.5,0.2-0.9,0.7-1.1,1.2c0,0.1,0,0.2,0.1,0.3l0.2,0.1c0.1,0,0.2,0.1,0.3,0.1c0.5,0,1-0.6,1.7-1.9c0.8-0.3,1.7-0.5,2.6-0.6
		c0.6,0.3,1.2,0.6,1.9,0.6h0.2c0.1,0,0.1,0,0.2-0.1C419.4,18.3,419.4,18,419.4,17.7z M412.4,19.9c0.2-0.4,0.5-0.8,0.9-1.1l0.2-0.2
		C413.3,19.2,412.9,19.6,412.4,19.9z M415.3,13.2c0.1,0,0.2,0.4,0.2,0.7s-0.1,0.5-0.2,0.8c-0.1-0.3-0.1-0.7-0.1-1
		C415.2,13.7,415.2,13.2,415.3,13.2z M414.4,18l0.3-0.6l0.6-1.2c0.2,0.4,0.5,0.8,0.9,1.1l0.1,0.1C415.7,17.6,415.1,17.8,414.4,18z
		 M419.1,18h-0.3c-0.4,0-0.8-0.1-1.1-0.3h0.5c0.2,0,0.4,0,0.6,0.1C419.2,17.8,419.2,17.9,419.1,18z"/>
	<path class="st6" d="M420.4,17.6c-1.5,0-2.8,1.3-2.8,2.8s1.3,2.8,2.8,2.8s2.8-1.3,2.8-2.8l0,0C423.2,18.9,422,17.6,420.4,17.6
		C420.5,17.6,420.4,17.6,420.4,17.6z M421.7,19.6L421.7,19.6l-1,1.4c-0.1,0.2-0.3,0.2-0.5,0.1l-0.1-0.1l-1-1.4
		c-0.1-0.2,0-0.4,0.1-0.5h0.7v-0.8c0-0.2,0.2-0.4,0.4-0.4h0.2c0.2,0,0.4,0.2,0.4,0.4v0.8h0.5c0.2,0,0.4,0.2,0.4,0.4
		C421.7,19.5,421.7,19.5,421.7,19.6z"/>
	<path class="st6" d="M418,23.1"/>
	<path class="st6" d="M421.6,17.3"/>
	<path class="st6" d="M421.3,13.4l-4.7-4.7c-0.2-0.2-0.5-0.4-0.8-0.4H411c-0.6,0-1.2,0.5-1.2,1.1v0.1l0,0v12.3
		c0,0.7,0.5,1.2,1.2,1.2h7.1l-0.5-0.5H411c-0.4,0-0.7-0.3-0.7-0.7l0,0V9.6c0-0.4,0.3-0.7,0.7-0.7l0,0h4.8c0.2,0,0.4,0.1,0.5,0.2
		l4.7,4.7c0.1,0.1,0.2,0.3,0.2,0.5v2.6l0.5,0.5v-3C421.6,14.1,421.5,13.7,421.3,13.4z"/>
	<polyline class="st6" points="421.6,17.3 421.6,17.3 421.1,16.8 	"/>
</g>
<circle class="st5" cx="335" cy="15.9" r="15"/>
<circle class="st1" cx="335" cy="15.9" r="13.5"/>
<path class="st6" d="M340.9,11.5l-2.3-2.3h-5.1v1.9h-2.8v10.1h7.4v-1.8h2.8V11.5z M338.6,9.8l1.7,1.7h-1.7V9.8z M331.2,20.7v-9.2
	h4.1v2.3h2.3v6.9H331.2z M335.8,11.7l1.7,1.7h-1.7V11.7z M338.1,18.9v-5.6l-2.3-2.3H334V9.6h4.1v2.3h2.3v6.9L338.1,18.9z"/>
<circle class="st5" cx="255" cy="15.9" r="15"/>
<circle class="st1" cx="255" cy="15.9" r="13.5"/>
<path class="st6" d="M259.8,14.6h-3.6V11c0-0.7-0.5-1.2-1.2-1.2s-1.2,0.5-1.2,1.2l0,0v3.6h-3.6c-0.7,0-1.2,0.5-1.2,1.2
	s0.5,1.2,1.2,1.2l0,0h3.6v3.6c0,0.7,0.5,1.2,1.2,1.2s1.2-0.5,1.2-1.2V17h3.6c0.6,0,1.2-0.5,1.2-1.1v-0.1
	C261,15.2,260.4,14.7,259.8,14.6z"/>
<circle class="st5" cx="295" cy="15.9" r="15"/>
<circle class="st1" cx="295" cy="15.9" r="13.5"/>
<path class="st6" d="M293.5,14.6v4.5c0,0.1-0.1,0.2-0.2,0.3h-0.5c-0.1,0-0.2-0.1-0.3-0.2l0,0v-4.5c0-0.1,0.1-0.2,0.2-0.3h0.5
	C293.4,14.3,293.5,14.4,293.5,14.6z M295.5,14.6v4.5c0,0.1-0.1,0.2-0.2,0.3h-0.5c-0.1,0-0.2-0.1-0.3-0.2l0,0v-4.5
	c0-0.1,0.1-0.2,0.2-0.3h0.5C295.4,14.3,295.5,14.4,295.5,14.6z M297.5,14.6v4.5c0,0.1-0.1,0.2-0.2,0.3h-0.5c-0.1,0-0.2-0.1-0.3-0.2
	l0,0v-4.5c0-0.1,0.1-0.2,0.2-0.3h0.5C297.4,14.3,297.5,14.4,297.5,14.6z M298.5,20.3v-7.4h-7v7.7c0,0.1,0.1,0.1,0.1,0.2l0.1,0.1h6.5
	l0.1-0.1c0-0.1,0.1-0.1,0.1-0.2C298.5,20.5,298.5,20.4,298.5,20.3z M293.3,11.9h3.5l-0.4-0.9l-0.1-0.1h-2.5c-0.1,0-0.1,0-0.1,0.1
	L293.3,11.9z M300.5,12.1v0.5c0,0.1-0.1,0.2-0.2,0.3h-0.8v7.4c0,0.4-0.1,0.8-0.4,1.1c-0.2,0.3-0.5,0.5-0.9,0.5h-6.5
	c-0.4,0-0.7-0.2-0.9-0.5c-0.3-0.3-0.4-0.7-0.4-1.1v-7.4h-0.8c-0.1,0-0.2-0.1-0.3-0.2l0,0v-0.6c0-0.1,0.1-0.2,0.2-0.3h2.4l0.5-1.3
	c0.1-0.2,0.2-0.4,0.4-0.5c0.2-0.1,0.4-0.2,0.6-0.2h2.5c0.2,0,0.4,0.1,0.6,0.2c0.2,0.1,0.3,0.3,0.4,0.5l0.5,1.3h2.4
	C300.4,11.8,300.5,11.9,300.5,12.1L300.5,12.1z"/>
<circle class="st5" cx="375" cy="15.9" r="15"/>
<circle class="st1" cx="375" cy="15.9" r="13.5"/>
<g id="transfer-2">
	<polygon class="st6" points="381.5,19.8 371.8,19.9 371.8,21.9 368.6,18.9 371.8,15.9 371.8,17.9 381.5,17.8 	"/>
	<polygon class="st6" points="368.5,13.9 378.2,13.8 378.2,15.8 381.4,12.8 378.2,9.9 378.2,11.8 368.5,11.9 	"/>
</g>
<g id="layer3">
	<path id="rect4208" class="st7" d="M6,42.6c-3.3,0-6,2.7-6,6v18c0,3.3,2.7,6,6,6h18c3.3,0,6-2.7,6-6v-18c0-3.3-2.7-6-6-6H6z
		 M14.7,46.9c3.6,0,6.8,1.9,8.7,4.9l2.1-1.3l0.1,7.1l-6.2-3.3l2.2-1.4c-2.3-3.8-7.3-5-11.1-2.7c-1.5,0.9-2.7,2.3-3.3,3.9
		c0,0.1,0,0.2-0.1,0.3c-0.2,0.6-0.9,0.9-1.5,0.7c-0.4-0.2-0.6-0.6-0.6-1c0-0.2,0.1-0.5,0.2-0.7C6.7,49.5,10.5,46.9,14.7,46.9z
		 M4.4,57.6l6.2,3.3l-2.2,1.4c2.3,3.8,7.3,5,11.1,2.7c1.5-0.9,2.7-2.3,3.3-3.9c0-0.1,0-0.2,0.1-0.3c0.2-0.6,0.9-0.9,1.5-0.7
		c0.4,0.2,0.6,0.6,0.6,1c0,0.2-0.1,0.5-0.2,0.7c-2,5.2-7.9,7.8-13.1,5.8c-2.1-0.8-3.9-2.3-5-4.2l-2.1,1.3L4.4,57.6z"/>
</g>
<path class="st7" d="M400.3,49.9l0.2,0.2l12.8,14.7c0.9,1,2.4,1.1,3.4,0.2c0.1-0.1,0.1-0.1,0.2-0.2l12.7-14.6l0.2-0.2
	c0.2-0.2,0.3-0.5,0.3-0.8c0-0.8-0.7-1.5-1.5-1.5h-26.9c-0.8,0-1.5,0.7-1.6,1.5l0,0C400,49.5,400.1,49.7,400.3,49.9z"/>
<path class="st7" d="M450.3,69.3l0.2-0.2l14.7-12.8c1-0.9,1.1-2.4,0.2-3.4c-0.1-0.1-0.1-0.1-0.2-0.2l-14.7-12.6l-0.2-0.2
	c-0.2-0.2-0.5-0.3-0.8-0.3c-0.9,0-1.5,0.7-1.5,1.6l0,0v26.9l0,0c0,0.8,0.7,1.5,1.5,1.6l0,0C449.8,69.6,450.1,69.5,450.3,69.3z"/>
<path class="st1" d="M479.3,49.9l0.2,0.2l12.8,14.7c0.9,1,2.4,1.1,3.4,0.2c0.1-0.1,0.1-0.1,0.2-0.2l12.7-14.6l0.2-0.2
	c0.2-0.2,0.3-0.5,0.3-0.8c0-0.8-0.7-1.5-1.5-1.5h-26.9c-0.8,0-1.5,0.7-1.6,1.5l0,0C479,49.5,479.1,49.7,479.3,49.9z"/>
<path class="st1" d="M527.3,69.3l0.2-0.2l14.7-12.8c1-0.9,1.1-2.4,0.2-3.4c-0.1-0.1-0.1-0.1-0.2-0.2l-14.7-12.6l-0.2-0.2
	c-0.2-0.2-0.5-0.3-0.8-0.3c-0.9,0-1.5,0.7-1.5,1.6l0,0v26.9l0,0c0,0.8,0.7,1.5,1.5,1.6l0,0C526.8,69.6,527.1,69.5,527.3,69.3z"/>
<g id="close">
	<circle class="st7" cx="55.6" cy="56.5" r="15"/>
	<path class="st1" d="M61.2,49.8l1,1c0.4,0.3,0.4,0.8,0.1,1.2l-0.1,0.1l-10.9,11c-0.3,0.4-0.8,0.4-1.2,0.1L50,63.1l-1-1
		c-0.4-0.3-0.4-0.8-0.1-1.2l0.1-0.1l10.8-10.9C60.2,49.5,60.8,49.5,61.2,49.8z"/>
	<path class="st1" d="M62.2,62l-1,1c-0.3,0.4-0.8,0.4-1.2,0.1L59.9,63L49,52.2c-0.4-0.3-0.4-0.8-0.1-1.2l0.1-0.1l1-1
		c0.3-0.4,0.8-0.4,1.2-0.1l0.1,0.1l10.9,10.9c0.3,0.2,0.4,0.7,0.2,1C62.3,61.9,62.3,62,62.2,62z"/>
</g>
<g id="close-2">
	<circle class="st0" cx="95.6" cy="57.6" r="15"/>
	<path class="st1" d="M101.2,51l1,1c0.4,0.3,0.4,0.8,0.1,1.2l-0.1,0.1L91.3,64.2c-0.3,0.4-0.8,0.4-1.2,0.1L90,64.2l-1-1
		c-0.4-0.3-0.4-0.8-0.1-1.2l0.1-0.1L99.9,51C100.3,50.7,100.8,50.7,101.2,51z"/>
	<path class="st1" d="M102.2,63.2l-1,1c-0.3,0.4-0.8,0.4-1.2,0.1l-0.1-0.1L89,53.3c-0.4-0.3-0.4-0.8-0.1-1.2L89,52l1-1
		c0.3-0.4,0.8-0.4,1.2-0.1l0.1,0.1l10.9,10.9C102.5,62.3,102.5,62.8,102.2,63.2z"/>
</g>
<path class="st7" d="M123.8,51.2h25.6c0.9,0,1.7-0.6,2.1-1.4c0.4-1.1-0.2-2.3-1.3-2.7c-0.2-0.1-0.5-0.1-0.7-0.1h-25.6
	c-0.9,0-1.7,0.6-2.1,1.4c-0.4,1.1,0.2,2.3,1.3,2.7C123.3,51.1,123.5,51.2,123.8,51.2z M149.5,55.5h-25.6c-0.9,0-1.7,0.6-2.1,1.4
	c-0.4,1.1,0.2,2.3,1.3,2.7c0.2,0.1,0.5,0.1,0.7,0.1h25.6c0.9,0,1.7-0.6,2.1-1.4c0.4-1.1-0.2-2.3-1.3-2.7
	C150,55.5,149.7,55.5,149.5,55.5L149.5,55.5z M149.5,64h-25.6c-0.9,0-1.7,0.6-2.1,1.4c-0.4,1.1,0.2,2.3,1.3,2.7
	c0.2,0.1,0.5,0.1,0.7,0.1h25.6c0.9,0,1.7-0.6,2.1-1.4c0.4-1.1-0.2-2.3-1.3-2.7C149.9,64.1,149.7,64,149.5,64L149.5,64z"/>
<g id="Layer_1-4">
	<circle class="st8" cx="497.8" cy="15" r="15"/>
	<g class="st9">
		<path class="st10" d="M503.4,22.4c-1.3-0.5-2.3-1.6-2.6-3c1.4-1.2,2.4-2.7,2.9-4.5c0.5-0.6,0.9-1.4,0.9-2.2c0-0.4-0.2-0.8-0.5-1
			c-0.1-3.8-2.8-6.9-6.1-6.9h-0.1c-3.3,0-6,3-6.1,6.8c-0.4,0.2-0.7,0.7-0.6,1.2c0.1,1,0.5,1.9,1.3,2.5c0.5,1.5,1.4,2.9,2.6,4
			c-0.2,1.5-1.3,2.7-2.7,3.2c-1,0.4-2.9,0.8-3.7,1.2c2,2.2,5.9,3.6,9.2,3.7h0.1c3.3,0,7.2-1.4,9.2-3.7
			C506.3,23.2,504.4,22.8,503.4,22.4z"/>
	</g>
	<path class="st1" d="M503.4,21.5c-1.3-0.5-2.3-1.6-2.6-3c1.4-1.2,2.4-2.7,2.9-4.5c0.5-0.6,0.9-1.4,0.9-2.2c0-0.4-0.2-0.8-0.5-1
		C504,7,501.3,3.9,498,3.9h-0.1c-3.3,0-6,3-6.1,6.8c-0.4,0.2-0.7,0.7-0.6,1.2c0.1,1,0.5,1.9,1.3,2.5c0.5,1.5,1.4,2.9,2.6,4
		c-0.2,1.5-1.3,2.7-2.7,3.2c-1,0.4-2.9,0.8-3.7,1.2c2,2.2,5.9,3.6,9.2,3.7h0.1c3.3,0,7.2-1.4,9.2-3.7
		C506.3,22.3,504.4,21.9,503.4,21.5z"/>
</g>
<g id="arrow_right_alt1">
	<path class="st11" d="M178,70c8.3,0,15-6.7,15-15s-6.7-15-15-15s-15,6.7-15,15l0,0C163,63.3,169.7,70,178,70z M178,47.1v5.6h7.5
		v3.7H178v5.7l-7.4-7.5L178,47.1z"/>
</g>
<g id="arrow_right_alt1-2">
	<path class="st11" d="M217,40c-8.3,0-15,6.7-15,15s6.7,15,15,15s15-6.7,15-15l0,0C232,46.7,225.3,40,217,40z M217,62.9v-5.6h-7.5
		v-3.7h7.5V48l7.4,7.5L217,62.9z"/>
</g>
<g id="Page-1">
	<g id="icon-111-search">
		<path id="search" class="st12" d="M541.2,21c-4.6,3.3-11,2.2-14.3-2.4s-2.2-11,2.4-14.3c4.6-3.3,11-2.2,14.3,2.4
			c2.9,4.1,2.4,9.7-1.1,13.2l7.2,7.2c0.4,0.3,0.4,0.8,0.1,1.2c-0.3,0.4-0.8,0.4-1.2,0.1c0,0,0,0-0.1-0.1
			C548.5,28.3,541.2,21,541.2,21z M535.2,21.7c5,0,9-4,9-9s-4-9-9-9.1c-5,0-9,4-9,9S530.2,21.7,535.2,21.7z"/>
	</g>
</g>
<g id="Icons">
	<path class="st13" d="M256.4,70.9L256.4,70.9c-8.3,0-15-6.7-15-15l0,0l0,0c0-8.3,6.7-15,15-15l0,0c8.3,0,15,6.7,15,15l0,0
		C271.4,64.2,264.7,70.9,256.4,70.9L256.4,70.9z"/>
	<line class="st14" x1="256.6" y1="47.6" x2="256.6" y2="63.1"/>
	<line class="st14" x1="249.1" y1="55.4" x2="264.1" y2="55.4"/>
</g>
<g id="Expanded">
	<path class="st7" d="M218.3,115.8h-2.5c-1,0-1.9-0.9-1.9-1.9v-2.3c-0.8-0.2-1.6-0.6-2.3-1l-1.6,1.7c-0.7,0.7-1.9,0.7-2.6,0
		l-1.7-1.7c-0.7-0.7-0.8-1.8-0.1-2.6l0.1-0.1l1.6-1.7c-0.4-0.7-0.8-1.5-1-2.3H204c-1,0-1.9-0.9-1.9-1.9v-2.5c0-0.3,0.1-0.6,0.2-0.9
		c0.3-0.6,1-1,1.7-1h2.3c0.2-0.8,0.6-1.6,1-2.3l-1.6-1.7c-0.7-0.8-0.7-1.9,0-2.7l1.8-1.8c0.7-0.7,1.9-0.7,2.6,0l1.6,1.7
		c0.7-0.4,1.5-0.8,2.3-1v-2.3c0-1,0.9-1.9,1.9-1.9h2.5c1,0,1.9,0.9,1.9,1.9v2.3c0.8,0.2,1.6,0.6,2.3,1l1.6-1.7
		c0.7-0.7,1.9-0.7,2.6,0l1.7,1.7c0.7,0.7,0.8,1.8,0.1,2.6l-0.1,0.1l-1.6,1.7c0.4,0.7,0.8,1.5,1,2.3h2.3c1,0,1.8,0.9,1.8,1.9v2.5
		c0,1-0.8,1.9-1.8,1.9h-2.4c-0.2,0.8-0.6,1.6-1,2.3l1.6,1.7c0.7,0.8,0.7,1.9,0,2.7l-1.8,1.8c-0.7,0.7-1.9,0.7-2.6,0l-1.6-1.8
		c-0.7,0.4-1.5,0.8-2.3,1v2.3c0.1,1-0.7,1.9-1.7,2C218.4,115.8,218.3,115.8,218.3,115.8z M211.5,109.2c0.1,0,0.2,0,0.3,0.1
		c0.9,0.5,1.8,0.9,2.8,1.2c0.3,0.1,0.5,0.3,0.5,0.6v2.8c0,0.3,0.3,0.6,0.6,0.6h2.5c0.3,0,0.6-0.3,0.6-0.6v-2.8
		c0-0.3,0.2-0.5,0.5-0.6c1-0.2,2-0.6,2.8-1.2c0.3-0.2,0.6-0.1,0.8,0.1l2,2c0.3,0.2,0.6,0.2,0.9,0l1.8-1.8c0.2-0.3,0.2-0.6,0-0.9
		l-2-2c-0.2-0.2-0.2-0.5-0.1-0.8c0.5-0.9,0.9-1.8,1.2-2.8c0.1-0.3,0.3-0.5,0.6-0.5h2.8c0.2,0,0.3-0.1,0.4-0.2
		c0.1-0.1,0.2-0.2,0.2-0.4v-2.5c0-0.3-0.3-0.6-0.6-0.6h-2.8c-0.3,0-0.5-0.2-0.6-0.5c-0.2-1-0.6-2-1.2-2.8c-0.2-0.3-0.1-0.6,0.1-0.8
		l2-2c0.2-0.3,0.2-0.6,0-0.9l0,0l-1.8-1.8c-0.3-0.2-0.6-0.2-0.9,0l-2,2c-0.2,0.2-0.5,0.2-0.8,0.1c-0.9-0.5-1.8-0.9-2.8-1.2
		c-0.3-0.1-0.5-0.3-0.5-0.6v-2.9c0-0.3-0.3-0.6-0.6-0.6h-2.5c-0.3,0-0.6,0.3-0.6,0.6v2.8c0,0.3-0.2,0.5-0.5,0.6
		c-1,0.2-2,0.6-2.8,1.2c-0.3,0.2-0.6,0.1-0.8-0.1l-2-2c-0.3-0.2-0.6-0.2-0.9,0l-1.8,1.8c-0.2,0.3-0.2,0.6,0,0.9l2,2
		c0.2,0.2,0.2,0.5,0.1,0.8c-0.5,0.9-0.9,1.8-1.2,2.8c-0.1,0.3-0.3,0.5-0.6,0.5h-2.8c-0.3,0-0.6,0.3-0.6,0.6v2.5
		c0,0.3,0.3,0.6,0.6,0.6h2.8c0.3,0,0.5,0.2,0.6,0.5c0.2,1,0.6,2,1.2,2.8c0.2,0.3,0.1,0.6-0.1,0.8l-2,2c-0.2,0.3-0.2,0.6,0,0.9l0,0
		l1.8,1.8c0.3,0.2,0.6,0.2,0.9,0l2-2C211.2,109.3,211.3,109.2,211.5,109.2z"/>
	<path class="st7" d="M216.8,107.3c-3.5,0-6.3-2.8-6.3-6.3s2.8-6.3,6.3-6.3s6.3,2.8,6.3,6.3l0,0C223,104.5,220.3,107.3,216.8,107.3z
		 M216.8,96c-2.8,0-5,2.2-5,5s2.2,5,5,5s5-2.2,5-5S219.6,96,216.8,96z"/>
</g>
<g id="Layer_1-7">
	<path id="Path_557" class="st15" d="M0.7,86.6c0-0.4,0.3-0.8,0.8-0.8l0,0h32.2c0.4,0,0.8,0.3,0.8,0.8l0,0l0,0v23.7
		c0,0.4-0.3,0.8-0.8,0.8l0,0H17.2c-0.1-2.9-2.6-5.2-5.5-5.1c-2.8,0.1-5,2.3-5.1,5.1H1.5c-0.4,0-0.8-0.3-0.8-0.8l0,0l0,0V86.6z"/>
	<path id="Path_558" class="st7" d="M15,108.1c-1.8-1.8-4.6-1.8-6.4,0s-1.8,4.6,0,6.4s4.6,1.8,6.4,0l0,0c0.8-0.9,1.3-2,1.3-3.2
		C16.3,110.1,15.8,109,15,108.1z M13,111.4c0,0.7-0.5,1.2-1.2,1.2s-1.2-0.5-1.2-1.2s0.5-1.2,1.2-1.2l0,0
		C12.4,110.2,13,110.7,13,111.4L13,111.4z"/>
	<path id="Path_559" class="st7" d="M38.1,111.3c0,2.5,2,4.5,4.5,4.5s4.5-2,4.5-4.5s-2-4.5-4.5-4.5l0,0
		C40.1,106.8,38.1,108.7,38.1,111.3C38.1,111.2,38.1,111.3,38.1,111.3z M43.8,111.3c0,0.7-0.5,1.2-1.2,1.2c-0.6,0-1.2-0.5-1.2-1.1
		v-0.1c0-0.7,0.5-1.2,1.2-1.2l0,0C43.3,110.1,43.8,110.7,43.8,111.3z"/>
	<path id="Path_560" class="st15" d="M42.6,106c2.9,0,5.3,5.3,5.3,5.3h2.5c0.4,0,0.8-0.3,0.8-0.8l0,0l0,0V99.2c0-2-0.7-3.9-2.1-5.4
		c-1.3-1.4-3.1-2.2-5-2.3h-8.8v18.9c-0.1,0.2-0.2,0.5-0.3,0.7c0.1,0,0.1,0,0.2-0.2h2.3C37.6,108.2,39.8,106,42.6,106L42.6,106z
		 M46.5,98.2v4.3h-5.7v-6.7h3.3C45.4,95.8,46.5,96.9,46.5,98.2L46.5,98.2z"/>
</g>
<g id="Layer_1-8">
	<path id="Path_557-2" class="st16" d="M64.4,86.6c0-0.4,0.3-0.8,0.8-0.8l0,0h32.2c0.4,0,0.8,0.3,0.8,0.8l0,0l0,0v23.7
		c0,0.4-0.3,0.8-0.8,0.8l0,0H80.8c-0.1-2.9-2.6-5.2-5.5-5.1c-2.8,0.1-5,2.3-5.1,5.1h-5.1c-0.4,0-0.8-0.3-0.8-0.8l0,0l0,0L64.4,86.6z
		"/>
	<path id="Path_558-2" class="st7" d="M78.7,108.1c-1.8-1.8-4.6-1.8-6.4,0s-1.8,4.6,0,6.4s4.6,1.8,6.4,0l0,0c0.8-0.9,1.3-2,1.3-3.2
		C80,110.1,79.5,109,78.7,108.1z M76.7,111.4c0,0.7-0.5,1.2-1.2,1.2s-1.2-0.5-1.2-1.2s0.5-1.2,1.2-1.2l0,0
		C76.1,110.2,76.7,110.7,76.7,111.4L76.7,111.4z"/>
	<path id="Path_559-2" class="st7" d="M101.8,111.3c0,2.5,2,4.5,4.5,4.5s4.5-2,4.5-4.5s-2-4.5-4.5-4.5l0,0
		C103.8,106.8,101.8,108.7,101.8,111.3C101.8,111.2,101.8,111.3,101.8,111.3z M107.5,111.3c0,0.7-0.5,1.2-1.2,1.2s-1.2-0.5-1.2-1.2
		s0.5-1.2,1.2-1.2l0,0C107,110.1,107.5,110.7,107.5,111.3z"/>
	<path id="Path_560-2" class="st16" d="M106.3,106c2.9,0,5.3,5.3,5.3,5.3h2.5c0.4,0,0.8-0.3,0.8-0.8l0,0l0,0V99.2
		c0-2-0.7-3.9-2.1-5.4c-1.3-1.4-3.2-2.3-5.1-2.3h-8.8v18.9c-0.1,0.2-0.2,0.5-0.3,0.7c0.1,0,0.1,0,0.2-0.2h2.3
		C101.2,108.2,103.5,106,106.3,106z M110.2,98.2v4.3h-5.7v-6.7h3.3C109.1,95.8,110.2,96.9,110.2,98.2L110.2,98.2z"/>
</g>
<g id="Layer_1-9">
	<path id="Path_557-3" class="st17" d="M128.1,86.6c0-0.4,0.3-0.8,0.8-0.8l0,0h32.2c0.4,0,0.8,0.3,0.8,0.8l0,0v23.7
		c0,0.4-0.3,0.8-0.8,0.8l0,0h-16.5c-0.1-2.9-2.6-5.2-5.5-5.1c-2.8,0.1-5,2.3-5.1,5.1h-5.1c-0.4,0-0.8-0.3-0.8-0.8l0,0L128.1,86.6z"
		/>
	<path id="Path_558-3" class="st7" d="M142.4,108.1c-1.8-1.8-4.6-1.8-6.4,0c-1.8,1.8-1.8,4.6,0,6.4s4.6,1.8,6.4,0l0,0
		c0.8-0.9,1.3-2,1.3-3.2C143.7,110.1,143.2,109,142.4,108.1z M140.4,111.4c0,0.7-0.5,1.2-1.2,1.2c-0.6,0-1.2-0.5-1.2-1.1v-0.1
		c0-0.7,0.5-1.2,1.2-1.2l0,0C139.8,110.2,140.4,110.7,140.4,111.4L140.4,111.4z"/>
	<path id="Path_559-3" class="st7" d="M165.5,111.3c0,2.5,2,4.5,4.5,4.5s4.5-2,4.5-4.5s-2-4.5-4.5-4.5l0,0
		C167.5,106.8,165.5,108.7,165.5,111.3C165.5,111.2,165.5,111.3,165.5,111.3z M171.2,111.3c0,0.7-0.5,1.2-1.2,1.2
		c-0.6,0-1.2-0.5-1.2-1.1v-0.1c0-0.7,0.5-1.2,1.2-1.2l0,0C170.6,110.2,171.2,110.7,171.2,111.3z"/>
	<path id="Path_560-3" class="st17" d="M170,106c2.9,0,5.3,5.3,5.3,5.3h2.5c0.4,0,0.8-0.3,0.8-0.8l0,0l0,0V99.2c0-2-0.7-3.9-2.1-5.4
		c-1.3-1.4-3.2-2.3-5.1-2.3h-8.8v18.9c-0.1,0.2-0.2,0.5-0.3,0.7c0.1,0,0.1,0,0.2-0.2h2.3C164.9,108.2,167.2,106,170,106z
		 M173.9,98.2v4.3h-5.7v-6.7h3.3C172.8,95.8,173.9,96.9,173.9,98.2L173.9,98.2z"/>
</g>
<g id="close-3">
	<circle class="st0" cx="256.5" cy="100.6" r="15"/>
</g>
<g id="Page-1-2">
	<g id="icon-111-search-2">
		<path id="search-2" class="st1" d="M258.9,104c-3,2.2-7.2,1.4-9.4-1.6s-1.4-7.2,1.6-9.4c3-2.2,7.2-1.4,9.4,1.6
			c1.9,2.7,1.6,6.3-0.8,8.6l4.7,4.7c0.2,0.2,0.2,0.6,0,0.7c0,0,0,0-0.1,0.1c-0.2,0.2-0.5,0.2-0.7,0l0,0L258.9,104z M255,104.4
			c3.3,0,5.9-2.6,5.9-5.9c-0.1-3.2-2.7-5.8-5.9-5.9c-3.3,0-5.9,2.6-5.9,5.9C249.2,101.8,251.8,104.4,255,104.4z"/>
	</g>
</g>
<circle class="st0" cx="296.8" cy="100.6" r="15"/>
<path class="st1" d="M290.3,93.9l-1.1,1.1l5.8,5.8l-2,4.8h2.5l1.3-3l4.7,4.7l1.1-1.1l-12-12L290.3,93.9z M292.6,93.9v0.2l2.4,2.3h2
	l-0.6,1.4l1.8,1.8l1.4-3.2h4.8v-2.5C304.4,93.9,292.6,93.9,292.6,93.9z"/>
<circle class="st0" cx="336.2" cy="101.4" r="15"/>
<path class="st1" d="M335,107.6L335,107.6l6.3-5.5c0.4-0.5,0.4-1.1,0-1.6l-6.3-5.4l-0.1-0.1c-0.1-0.1-0.2-0.1-0.4-0.1
	c-0.4,0-0.6,0.3-0.6,0.7l0,0v11.5l0,0c0,0.3,0.3,0.6,0.6,0.7C334.8,107.7,334.9,107.7,335,107.6z"/>
<path class="st7" d="M336.4,39.5c-8.3,0-15,6.7-15,15s6.7,15,15,15s15-6.7,15-15l0,0C351.4,46.2,344.7,39.5,336.4,39.5z M336.4,67.6
	c-7.2,0-13.1-5.9-13.1-13.1s5.9-13.1,13.1-13.1s13.1,5.9,13.1,13.1S343.7,67.6,336.4,67.6L336.4,67.6z"/>
<path class="st7" d="M343,53.9h-13.1c-0.4,0-0.7,0.3-0.8,0.8c-0.1,0.5,0.2,0.9,0.6,1.1H343c0.4,0,0.7-0.3,0.8-0.8
	C343.9,54.5,343.6,54,343,53.9C343.1,53.9,343,53.9,343,53.9z"/>
<g id="Icons-2">
	<path class="st18" d="M296.9,70.9L296.9,70.9c-8.3,0-15-6.7-15-15l0,0l0,0c0-8.3,6.7-15,15-15l0,0c8.3,0,15,6.7,15,15l0,0
		C311.9,64.2,305.2,70.9,296.9,70.9L296.9,70.9z"/>
	<line class="st19" x1="297.1" y1="47.6" x2="297.1" y2="63.1"/>
	<line class="st19" x1="289.6" y1="55.4" x2="304.6" y2="55.4"/>
</g>
<path class="st5" d="M375.9,41c-8.3,0-15,6.7-15,15s6.7,15,15,15s15-6.7,15-15S384.2,41,375.9,41z M375.9,69.1
	c-7.2,0-13.1-5.9-13.1-13.1s5.9-13.1,13.1-13.1S389,48.8,389,56S383.2,69.1,375.9,69.1L375.9,69.1z"/>
<path class="st5" d="M382.5,55.4h-13.2c-0.4,0-0.7,0.3-0.8,0.7c-0.1,0.5,0.2,0.9,0.6,1.1h13.3c0.4,0,0.7-0.3,0.8-0.8
	C383.3,56,383,55.5,382.5,55.4C382.6,55.4,382.6,55.4,382.5,55.4z"/>
<path class="st20" d="M30.8,139.2h-1.3v-1.8H26V136h-0.7v1.4H21v-2c0-0.1,0-0.2-0.1-0.2h-0.1c-0.1,0-0.2,0.2-0.2,0.2v2h-9.9v-0.5H8
	v0.5H6.2c-2.1,0-1.8,1.2-1.8,1.2s-0.1,5.5,0,6.9c0,0.6,0.2,1.3,0.7,1.7h2.5v2.5H7.5v0.7h0.2v0.5H6.9v0.3H3.1c-2.4,0-1.7,2.2-1.7,3.7
	s1.8,1.7,1.8,1.7h0.3v0.7h2.2v-0.7h6.5v0.7h2.2v-0.7h12v0.7h2.2v-0.7h0.2c1.6,0,1.2-1.8,1.2-1.8l-0.3-11.4h1.2
	c0.3,0,0.5-0.3,0.5-0.7l0,0v-3.1C31.3,139.4,31.1,139.2,30.8,139.2z M19.2,151.4H8.9v-0.3H8v-2.3h0.9v-0.2h0.2v0.2h0.4v-0.7H9.1v0.2
	H8.9v0.2H8v-1.1h2.2v0.9l0,0v-1c0.9,0,0.5-0.4,1-2.1c0.1-1,1-1.7,2-1.7h5.2c1.3-0.1,2.4,0.9,2.5,2.2l0,0c0,0-0.1,1.5,0,3.9
	S19.2,151.4,19.2,151.4z"/>
<circle class="st1" cx="25.5" cy="141.2" r="2"/>
<circle class="st20" cx="25.5" cy="141.2" r="1.4"/>
<circle class="st1" cx="25.5" cy="146.1" r="0.9"/>
<circle class="st20" cx="25.5" cy="146.1" r="0.6"/>
<circle class="st1" cx="25.5" cy="148.8" r="0.7"/>
<circle class="st20" cx="25.5" cy="148.8" r="0.5"/>
<circle class="st21" cx="416.5" cy="147.5" r="11.5"/>
<polyline class="st21" points="424.9,155.3 416.6,147.5 416.6,135.9 "/>
<path class="st22" d="M416.5,147.4h11.4c0.6,3.1-1.3,6.7-3.1,8.4L416.5,147.4z"/>
<line class="st23" x1="421" y1="147.8" x2="427" y2="141.8"/>
<line class="st23" x1="416.5" y1="146.3" x2="424" y2="138.8"/>
<line class="st23" x1="416.4" y1="140.4" x2="420.1" y2="136.7"/>
<polygon class="st24" points="124.3,196.2 103.8,196.2 103.8,182.6 124.3,182.6 120.2,189.4 "/>
<line class="st24" x1="99.7" y1="181.2" x2="99.7" y2="211.2"/>
<rect x="107.1" y="182.6" class="st1" width="1.9" height="13.6"/>
<rect x="109.6" y="182.6" class="st1" width="1.9" height="13.6"/>
<path class="st1" d="M33.3,200.5h-0.5V183h0.6c0.2,0,0.4-0.1,0.5-0.2c0.3-0.3,0.3-0.9,0-1.2c-0.2-0.2-0.4-0.2-0.6-0.2H4.8
	c-0.2,0-0.4,0.1-0.5,0.2c-0.3,0.3-0.3,0.9,0,1.2c0.2,0.2,0.4,0.2,0.6,0.2h0.4v17.9H4.9c0,0-0.8,0.1-0.8,0.6s0.2,0.7,0.6,0.7h13.5
	v2.1l-6.5,5.5c-0.4,0.3-0.5,0.8-0.2,1.2s0.8,0.5,1.2,0.2l0.1-0.1l5.8-4.6v3.5c0,0,0,0.8,0.5,0.8s0.8-0.8,0.8-0.8v-3.5l5.5,4.6
	c0.2,0.1,0.3,0.2,0.5,0.2s0.5-0.1,0.6-0.3c0.3-0.3,0.3-0.9-0.1-1.2l0,0l-6.2-5.5v-2.1h13c0.3,0.1,0.7-0.1,0.8-0.4v-0.1v-0.2
	C34.1,201,33.3,200.5,33.3,200.5z M7,183h24.1v17.9H7V183z"/>
<path class="st1" d="M24.5,190c-0.2,0.4-0.1,0.8,0.2,1.1h0.1c0.1,0.1,0.3,0.1,0.4,0.1c0.3,0,0.6-0.2,0.7-0.4l2-3.4
	c0.2-0.4,0.1-0.8-0.2-1.1c0,0,0,0-0.1,0l-3.4-2.1c-0.4-0.3-0.9-0.2-1.1,0.2s-0.2,0.9,0.2,1.1l0.1,0.1l1.6,1
	c-10.6,2.6-13.8,10.5-14,10.8c-0.2,0.4,0,0.9,0.4,1.1h0.1h0.3c0.3,0,0.7-0.2,0.8-0.5s3.2-7.5,13-9.9L24.5,190z"/>
<path class="st1" d="M24,195.2c0-1.7-1.4-3.1-3.1-3.1s-3.1,1.4-3.1,3.1c0,1.7,1.4,3.1,3.1,3.1H21c1.7,0,3-1.3,3-3
	C24,195.3,24,195.3,24,195.2z M19.5,195.2c0-0.8,0.6-1.5,1.4-1.5s1.5,0.6,1.5,1.4c0,0.8-0.6,1.5-1.4,1.5
	C20.2,196.6,19.6,196,19.5,195.2z"/>
<path class="st1" d="M12.8,190.4v-1.2H14c0.4,0,0.7-0.2,0.8-0.6c0.1-0.5-0.2-0.9-0.6-1.1h-1.5v-1.2c0-0.4-0.2-0.7-0.6-0.8
	c-0.4-0.1-0.9,0.1-1.1,0.5v1.5h-1c-0.4,0-0.7,0.2-0.8,0.6c-0.1,0.4,0.1,0.9,0.5,1.1h1.5v1.2c0,0.4,0.3,0.8,0.8,0.8l0,0h0.3
	C12.6,191.1,12.8,190.8,12.8,190.4z"/>
<g id="layer1">
	<g id="g4305">
		<g id="g4345">
			<g id="text2994">
				<g id="g3830">
					<g id="g3838">
						<g id="g3785">
							<g id="g3790">
								<path id="rect3813" class="st20" d="M290,154l-0.4,4.9h13.3l-0.4-4.9H290z M291,155h8.4c0.1,0,0.2,0.1,0.2,0.2
									c0,0.1-0.1,0.2-0.2,0.2l0,0h-8.3c-0.1,0.1-0.2,0-0.3,0c0,0,0,0,0-0.1C290.7,155.2,290.8,155.1,291,155L291,155z M291,156.2
									h10.4c0.1,0,0.2,0.1,0.2,0.2c0,0.1-0.1,0.2-0.2,0.2H291c-0.1,0-0.2-0.1-0.2-0.2S290.9,156.2,291,156.2z M290.9,157.4h6.6
									c0.1,0,0.2,0.1,0.2,0.2c0,0.1-0.1,0.2-0.2,0.2H291c-0.1,0-0.2-0.1-0.2-0.2C290.7,157.5,290.8,157.4,290.9,157.4z"/>
								<path id="rect3821" class="st20" d="M288.9,141.1v2.9H286c-0.1,0-0.2,0-0.3,0.1c-0.1,0.1-0.2,0.2-0.2,0.3l0,0l-0.7,2.4v7.9
									c0,0.1,0.1,0.2,0.1,0.3s0.2,0.1,0.4,0.1h3.6l0.1-1.7v-2.3c0-0.1,0-0.1,0.1-0.2l0.3-0.2l0.1-0.1h13.4c0.1,0,0.1,0,0.2,0.1
									l0.3,0.2c0.1,0.1,0.1,0.1,0.1,0.2v2.4l0.1,1.7h3.6c0.1,0,0.3-0.1,0.4-0.1c0.1-0.1,0.1-0.2,0.1-0.3v-3.4h-2.4v-1h2.4v-3.6
									l-0.7-2.4l0,0c0-0.1-0.1-0.2-0.2-0.3s-0.2-0.1-0.3-0.1h-2.9v-2.9h-0.7v3.3c0,0.1,0,0.3-0.1,0.4l-0.5,0.5
									c-0.1,0.1-0.2,0.1-0.3,0.1h-11.3c-0.1,0-0.2-0.1-0.3-0.1l-0.5-0.5c-0.1-0.1-0.1-0.2-0.1-0.4v-3.3L288.9,141.1L288.9,141.1z
									 M289.6,151.1l-0.1,0.1v1.9h13.4v-1.9l-0.1-0.1H289.6z"/>
								<path id="rect3813-1" class="st20" d="M290.6,135.6v9.3h11.2v-9.3H290.6z"/>
							</g>
						</g>
					</g>
				</g>
			</g>
		</g>
	</g>
</g>
<g id="data">
	<path class="st20" d="M136.4,136.1c-4.6,0-9.6,1.4-9.6,4.5v13.1c0,3.1,5,4.5,9.6,4.5s9.6-1.5,9.6-4.5v-13.1
		C146,137.5,141,136.1,136.4,136.1z M144.6,153.6c0,1.7-3.7,3.1-8.3,3.1s-8.3-1.4-8.3-3.1V151c1.4,1.5,4.8,2.2,8.3,2.2
		s6.8-0.8,8.3-2.2V153.6z M144.6,149.7L144.6,149.7c0,1.7-3.7,3.1-8.3,3.1s-8.3-1.4-8.3-3.1l0,0v-2.6c1.4,1.5,4.8,2.2,8.3,2.2
		s6.8-0.8,8.3-2.2V149.7z M144.6,145.6L144.6,145.6c0,1.7-3.7,3.1-8.3,3.1s-8.3-1.4-8.3-3.1l0,0v-2.4c1.8,1.4,5.1,2,8.3,2
		s6.4-0.6,8.3-2V145.6z M136.4,143.6c-4.6,0-8.3-1.4-8.3-3.1s3.7-3.1,8.3-3.1s8.3,1.4,8.3,3.1S141,143.6,136.4,143.6z"/>
	<circle class="st20" cx="142.6" cy="153.9" r="0.7"/>
	<circle class="st20" cx="142.6" cy="149.8" r="0.7"/>
	<circle class="st20" cx="142.6" cy="145.7" r="0.7"/>
</g>
<path class="st20" d="M257.1,139v-2.9c0-0.2-0.1-0.4-0.3-0.5c-0.2-0.1-0.5,0-0.6,0.2v0.1v3.1c-0.4,0.2-0.7,0.6-0.7,1.1
	c0,0.6,0.5,1.2,1.1,1.2h0.1c0.7,0,1.2-0.5,1.2-1.2C257.8,139.6,257.5,139.2,257.1,139z"/>
<path class="st20" d="M264.5,139v-2.9c0-0.2-0.1-0.4-0.3-0.5c-0.2-0.1-0.5,0-0.6,0.2v0.1v3.1c-0.4,0.2-0.7,0.6-0.7,1.1
	c0,0.6,0.5,1.2,1.1,1.2h0.1c0.7,0,1.2-0.5,1.2-1.2C265.2,139.6,264.9,139.2,264.5,139z"/>
<rect x="250.2" y="137.4" class="st20" width="5.4" height="1"/>
<rect x="257.6" y="137.4" class="st20" width="5.4" height="1"/>
<path class="st20" d="M249.7,139v-2.9c0-0.2-0.1-0.4-0.3-0.5s-0.5,0-0.6,0.2v0.1v3.1c-0.4,0.2-0.7,0.6-0.7,1.1
	c0,0.6,0.5,1.2,1.1,1.2h0.1c0.7,0,1.2-0.5,1.2-1.2C250.4,139.6,250.1,139.2,249.7,139z"/>
<path class="st20" d="M267.9,137.4h-3.2v1h3.2c0.8,0,1.5,0.7,1.5,1.5v2.7h-26v-2.7c0-0.8,0.7-1.5,1.5-1.5h3.2v-1h-3.2
	c-1.4,0-2.5,1.1-2.5,2.5l0,0l0,0v16.2c0,1.4,1.1,2.5,2.5,2.5l0,0H268c1.4,0,2.5-1.1,2.5-2.5l0,0v-16.2
	C270.4,138.5,269.3,137.4,267.9,137.4z M267.9,157.5h-23.1c-0.8,0-1.5-0.7-1.5-1.5v-12.5h26V156
	C269.3,156.8,268.7,157.5,267.9,157.5L267.9,157.5L267.9,157.5z"/>
<circle class="st20" cx="253.3" cy="146.4" r="0.8"/>
<circle class="st20" cx="250.3" cy="146.4" r="0.8"/>
<circle class="st20" cx="265.2" cy="146.4" r="0.8"/>
<circle class="st20" cx="247.3" cy="149.1" r="0.8"/>
<circle class="st20" cx="250.3" cy="149.1" r="0.8"/>
<circle class="st20" cx="253.3" cy="149.1" r="0.8"/>
<path class="st20" d="M256.3,148.3c0.4,0,0.8,0.4,0.8,0.8s-0.4,0.8-0.8,0.8s-0.8-0.4-0.8-0.8C255.5,148.7,255.9,148.3,256.3,148.3z"
	/>
<circle class="st20" cx="259.2" cy="149.1" r="0.8"/>
<circle class="st20" cx="262.2" cy="149.1" r="0.8"/>
<circle class="st20" cx="250.3" cy="151.9" r="0.8"/>
<circle class="st20" cx="253.3" cy="151.9" r="0.8"/>
<path class="st20" d="M256.3,151.1c0.4,0,0.8,0.4,0.8,0.8s-0.4,0.8-0.8,0.8s-0.8-0.4-0.8-0.8C255.5,151.5,255.9,151.1,256.3,151.1z"
	/>
<circle class="st20" cx="259.2" cy="151.9" r="0.8"/>
<circle class="st20" cx="262.2" cy="151.9" r="0.8"/>
<path class="st20" d="M256.3,145.7c0.4,0,0.8,0.4,0.8,0.8s-0.4,0.8-0.8,0.8s-0.8-0.4-0.8-0.8C255.5,146.1,255.9,145.7,256.3,145.7z"
	/>
<circle class="st20" cx="259.2" cy="146.5" r="0.8"/>
<circle class="st20" cx="262.2" cy="146.5" r="0.8"/>
<circle class="st20" cx="265.2" cy="149.1" r="0.8"/>
<ellipse class="st20" cx="265.3" cy="151.9" rx="0.7" ry="0.8"/>
<circle class="st20" cx="247.3" cy="151.8" r="0.8"/>
<circle class="st20" cx="247.3" cy="154.5" r="0.8"/>
<circle class="st20" cx="250.3" cy="154.5" r="0.8"/>
<circle class="st20" cx="253.3" cy="154.5" r="0.8"/>
<path class="st20" d="M256.3,153.7c0.4,0,0.8,0.4,0.8,0.8s-0.4,0.8-0.8,0.8s-0.8-0.4-0.8-0.8C255.5,154.1,255.9,153.7,256.3,153.7z"
	/>
<path class="st20" d="M186,143.8l-5.4,0.1l-0.2-8.1l-8.1,0.2l0.2,8.1l-5.4,0.1l9.7,9.3L186,143.8z M167.3,156.5l0.1,2.7l19-0.5
	l-0.1-2.7L167.3,156.5z"/>
<path class="st20" d="M103.8,135.7H88.3c-1.8,0-3.3,1.4-3.3,3.2l0,0V155c0,1.8,1.4,3.3,3.2,3.4h15.5c1.8,0,3.2-1.4,3.2-3.2v-0.1l0,0
	v-16C107,137.3,105.6,135.8,103.8,135.7L103.8,135.7z M105.1,155.1c0,0.8-0.6,1.4-1.3,1.4c0,0,0,0-0.1,0H88.3
	c-0.8,0-1.4-0.6-1.4-1.3c0,0,0,0,0-0.1v-16c0-0.8,0.6-1.4,1.3-1.4c0,0,0,0,0.1,0h15.5c0.8,0,1.4,0.6,1.4,1.3c0,0,0,0,0,0.1l0,0
	L105.1,155.1L105.1,155.1z"/>
<path class="st20" d="M101.5,143.8h-7.2c-0.5,0-0.9,0.4-0.9,0.9s0.4,0.9,0.9,0.9h7.2c0.5,0,0.9-0.4,0.9-0.9S102,143.8,101.5,143.8z"
	/>
<circle class="st20" cx="90.7" cy="144.7" r="1"/>
<path class="st20" d="M101.5,147.7h-7.2c-0.6,0-1,0.4-1,1s0.4,1,1,1h7.2c0.6,0,1-0.4,1-1S102.1,147.7,101.5,147.7z"/>
<circle class="st20" cx="90.7" cy="148.6" r="1"/>
<path class="st20" d="M101.5,151.6h-7.2c-0.6,0-1,0.4-1,1s0.4,1,1,1h7.2c0.6,0,1-0.4,1-1S102.1,151.6,101.5,151.6z"/>
<circle class="st20" cx="90.7" cy="152.6" r="1"/>
<path class="st20" d="M101.5,139.9H90.3c-0.6,0-1,0.4-1,1s0.4,1,1,1h11.2c0.6,0,1-0.4,1-1S102.1,139.9,101.5,139.9z"/>
<path class="st20" d="M364.8,154.6h9.8c0.5,0,0.8-0.3,0.8-0.6v-1.2c0-0.3-0.4-0.6-0.8-0.6h-9.8c-0.5,0-0.8,0.3-0.8,0.6v1.2
	C364,154.4,364.4,154.6,364.8,154.6z M364.8,157.9h9.8c0.5,0,0.8-0.3,0.8-0.6v-1.2c0-0.3-0.4-0.6-0.8-0.6h-9.8
	c-0.5,0-0.8,0.3-0.8,0.6v1.2C364,157.6,364.4,157.9,364.8,157.9z M364.8,151.4h9.8c0.5,0,0.8-0.3,0.8-0.6v-1.1
	c0-0.3-0.4-0.6-0.8-0.6h-9.8c-0.5,0-0.8,0.3-0.8,0.6v1.2C364,151.1,364.4,151.4,364.8,151.4L364.8,151.4z M377,151v-1.4
	c0-1.2-1-2.2-2.2-2.2c-0.1,0-0.1,0-0.2,0h-3.3c-0.1-2.3,1.7-4.2,3.9-4.3c2.3-0.1,4.2,1.7,4.3,3.9C379.6,148.8,378.6,150.4,377,151
	L377,151z M364,140h22.8v14.6h-9.9c0.1-0.2,0.1-0.4,0.1-0.6v-1h4.9c0-1.8,1.5-3.3,3.3-3.3l0,0v-4.9c-1.8,0-3.3-1.5-3.3-3.3h-13
	c0,1.8-1.5,3.3-3.3,3.3l0,0v2.4h-0.8c-0.3,0-0.5,0-0.8,0.1L364,140z M390,136.7V153h-1.6v-14.6h-22.8v-1.6L390,136.7z"/>
<g id="Layer_1-11">
	<path class="st25" d="M346,156.4v0.9c0.2,0,0.3,0.1,0.5,0.2v-1c-0.1-0.1-0.1-0.1-0.1-0.2"/>
	<path class="st25" d="M346,156.4v1c0.2,0,0.3,0.1,0.5,0.2v-1c-0.2-0.1-0.2-0.1-0.1-0.2"/>
	<path class="st25" d="M346,156.4v1.2c0.2,0.1,0.2,0.1,0,0.2v-1c0.1,0,0.2-0.1,0.3-0.2"/>
	<path class="st25" d="M346.4,156.8v1c-0.4,0.3-0.9,0.5-1.4,0.6v-1c0.4,0,0.8-0.3,1-0.6"/>
	<polygon class="st25" points="345.1,157.2 345.1,158.5 329.1,158.5 328.8,157.2 	"/>
	<path class="st25" d="M329.3,157.7v0.8c-0.7,0-1.3-0.5-1.4-1.2l0,0v-1c0,0.7,0.6,1.2,1.2,1.2c0.1,0,0.1,0,0.2,0l0,0"/>
	<path class="st20" d="M345.1,135.6c0.7,0,1.3,0.5,1.4,1.2v19.6c0,0.7-0.6,1.2-1.2,1.2c-0.1,0-0.1,0-0.2,0h-15.8
		c-0.7,0-1.3-0.5-1.4-1.2v-19.6c0-0.7,0.6-1.2,1.2-1.2c0.1,0,0.1,0,0.2,0H345.1z"/>
	<path class="st1" d="M340.1,138.5h3.6v1.2h-3.6V138.5z M335.1,138.5h3.6v1.2h-3.6V138.5z M330.1,138.5h3.6v1.2h-3.6V138.5z
		 M330.1,140.9h3.6v1.2h-3.6V140.9z M330.1,142.9h3.6v1.2h-3.6V142.9z M333.7,145.4v1.2h-3.6v-1.2H333.7z M330.1,147.8h3.6v1.2h-3.6
		V147.8z M333.7,151.5h-3.6v-1.2h3.6V151.5z M335.1,140.9h3.6v1.2h-3.6V140.9z M335.1,142.9h3.6v1.2h-3.6V142.9z M338.7,145.3v1.3
		h-3.6v-1.2L338.7,145.3z M335.1,147.8h3.6v1.2h-3.6V147.8z M338.7,151.4h-3.6v-1.1h3.6V151.4z M340.1,140.8h3.6v1.2h-3.6V140.8z
		 M340.5,142.8h3.6v1.2h-3.6V142.8z M344.1,145.3v1.3h-3.6v-1.2L344.1,145.3z M340.5,147.7h3.6v1.2h-3.6V147.7z M344.1,151.4h-3.6
		v-1.1h3.6V151.4z"/>
</g>
<path class="st26" d="M47.8,154.4v-18.9h18.9v18.9c0,2.3-1.9,4.2-4.2,4.2"/>
<path class="st21" d="M58.3,154.4H44.7c0,2.3,1.9,4.2,4.2,4.2h13.7C60.3,158.6,58.3,156.8,58.3,154.4L58.3,154.4z"/>
<path class="st20" d="M58.3,154.4H44.7c0,2.3,1.9,4.2,4.2,4.2h13.7C60.3,158.6,58.3,156.8,58.3,154.4L58.3,154.4z"/>
<text transform="matrix(1 0 0 1 54.6801 149.15)" class="st20 st27 st28">$</text>
<g id="user_half_settings">
	<path class="st1" d="M65.4,188.8c2.1,0,3.8-1.7,3.8-3.8s-1.7-3.8-3.8-3.8c-2.1,0-3.8,1.7-3.8,3.8l0,0
		C61.6,187.1,63.3,188.8,65.4,188.8L65.4,188.8z M72.5,194.2v-2c0-1-0.8-1.9-1.8-1.9H59.3c-1,0-1.9,0.8-1.9,1.8v13.4
		c0,1,0.8,1.9,1.8,1.9h0.1v3.8h11.4v-0.1c4.6,0.7,9-2.5,9.7-7.1s-2.5-9-7.1-9.7C73,194.2,72.8,194.2,72.5,194.2z M72,209.5
		c-3.6,0-6.5-2.9-6.5-6.5s2.9-6.5,6.5-6.5s6.5,2.9,6.5,6.5S75.6,209.5,72,209.5L72,209.5z"/>
	<path class="st1" d="M76.3,203.6v-1.9h-1.6c-0.1-0.2-0.1-0.4-0.2-0.6l1.1-1.1l-1.3-1.3l-1.1,1.1c-0.2-0.1-0.5-0.2-0.7-0.3v-1.6
		h-1.9v1.6l-0.6,0.3l-1.1-1.1l-1.3,1.3l1.1,1.1l-0.3,0.6h-1.6v1.9h1.6c0.1,0.2,0.2,0.5,0.3,0.7l-1.1,1.1l1.3,1.3l1.1-1.1
		c0.2,0.1,0.4,0.2,0.6,0.2v1.6h1.9v-1.6l0.6-0.3l1.2,1.1l1.3-1.3l-1.2-1.1l0.3-0.6L76.3,203.6z M72.1,204.4c-0.8,0-1.4-0.6-1.4-1.4
		c0-0.8,0.6-1.4,1.4-1.4s1.4,0.6,1.4,1.4l0,0l0,0C73.5,203.8,72.9,204.4,72.1,204.4L72.1,204.4z"/>
</g>
<path class="st20" d="M217.3,144.7c-2.6-2.3-5.5-4.3-8.7-5.8c1.7,3,3.8,5.8,6.2,8.3c-2.5,2.6-4.6,5.6-6.1,8.9c3.1-1.8,6-4,8.6-6.4
	c2.4,2.3,5.1,4.3,7.9,6c-4.5,4.8-12.1,5-16.9,0.5c-4.8-4.5-5-12.1-0.5-16.9c2.2-2.4,5.4-3.7,8.6-3.7c3.3,0,6.4,1.4,8.7,3.7
	C222.4,140.8,219.7,142.6,217.3,144.7z M219.8,147.2c2.2-2.3,4.1-4.8,5.6-7.6c1.9,2.2,3,4.9,3,7.8c0,2.9-1.1,5.7-3,7.8
	C224,152.3,222.1,149.6,219.8,147.2z"/>
<polygon class="st20" points="445.8,137.2 449.6,136.3 449.6,157.4 445.8,156.5 "/>
<polygon class="st20" points="450.1,136.5 453.6,135.6 453.6,158.5 450.1,157.3 "/>
<polygon class="st20" points="454.5,135.6 468,139.4 468,154.2 454.5,158.5 "/>
<path class="st1" d="M447,145.7h1.4c0.2,0,0.4,0.3,0.4,0.6v0.1c0,0.4-0.2,0.6-0.4,0.6H447c-0.2,0-0.4-0.3-0.4-0.6v-0.1
	C446.6,146,446.8,145.7,447,145.7z"/>
<path class="st1" d="M451.2,145.7h1.4c0.2,0,0.4,0.3,0.4,0.6v0.1c0,0.4-0.2,0.6-0.4,0.6h-1.4c-0.2,0-0.4-0.3-0.4-0.6v-0.1
	C450.8,146,451,145.7,451.2,145.7z"/>
<rect x="455.5" y="137.6" class="st1" width="1.1" height="18.5"/>
<rect x="458.2" y="138.9" class="st1" width="1.1" height="16.2"/>
<rect x="461" y="139.4" class="st1" width="1.1" height="14.9"/>
<rect x="463.4" y="140.3" class="st1" width="1.1" height="13.1"/>
<rect x="466.1" y="141.2" class="st1" width="1.1" height="11.3"/>
<polygon class="st1" points="142.4,187.7 142.4,185 149.6,185 149.6,204.8 170.6,204.8 170.6,207.7 146.6,207.7 146.6,187.5 "/>
<path class="st1" d="M154.2,181.2h10.5c1.1,0,2.1,0.9,2.1,2v0.1v4.2c0,1.1-0.9,2.1-2,2.1h-0.1h-10.5c-1.1,0-2.1-0.9-2.1-2v-0.1v-4.2
	C152.1,182.2,153,181.2,154.2,181.2z"/>
<path class="st1" d="M155.9,191.7h15.6c1.1,0,2.1,0.9,2.1,2v0.1v6.7c0,1.1-0.9,2.1-2,2.1h-0.1h-15.6c-1.1,0-2.1-0.9-2.1-2v-0.1v-6.7
	C153.8,192.7,154.7,191.7,155.9,191.7z"/>
<circle class="st1" cx="153.1" cy="208.4" r="2.9"/>
<circle class="st1" cx="165.1" cy="208.4" r="2.9"/>
<path class="st1" d="M482.5,146.9v-6.7c0.1-1.1,0.9-1.9,2-2c1.4-0.1,2.9-0.1,4.3,0v8.7H482.5z"/>
<rect x="489.5" y="138.1" class="st1" width="1.7" height="8.8"/>
<path class="st1" d="M492,138.1h12.1c0,0,2,0.3,2.1,2.1c0.1,0.8,0.1,1.6,0,2.4h-3.6c-0.8,0-1.4,0.6-1.4,1.3c0,0,0,0,0,0.1v0.1
	c-0.1,1.5,0,9.3,0,9.3c-0.1,0.6,0.3,1.2,0.9,1.4h4.1c0,0,0.2,2.4-1.9,2.6s-8.6,0-8.6,0v-5h1.1v0.6h2.1c0.6-0.2,1.1-0.7,1.2-1.3v-6
	c0,0-0.4-1.3-1.4-1.3h-2v0.6H492V138.1z"/>
<path class="st1" d="M505.6,143.3h0.5v10.5l0,0c-2.4,0-4.3-1.9-4.3-4.2c0,0,0,0,0-0.1l0,0v-2.4C501.8,145,503.5,143.4,505.6,143.3z"
	/>
<path class="st1" d="M504.1,145.7L504.1,145.7c0.4,0,0.8,0.3,0.8,0.8l0,0v4.6c0,0.4-0.3,0.8-0.8,0.8l0,0l0,0c-0.4,0-0.8-0.3-0.8-0.8
	l0,0v-4.6C503.2,146,503.6,145.7,504.1,145.7z"/>
<path class="st1" d="M494.5,139.8h5.4c0.5,0,0.9,0.4,0.9,0.9l0,0c0,0.5-0.4,0.9-0.9,0.9h-5.4c-0.5,0-0.9-0.4-0.9-0.9l0,0
	C493.6,140.2,494,139.8,494.5,139.8z"/>
<path class="st1" d="M497.5,145.1L497.5,145.1c0.9,0,1.7,0.8,1.7,1.7v4c0,0.7-0.6,1.3-1.3,1.3h-0.4L497.5,145.1L497.5,145.1z"/>
<path class="st1" d="M485.6,147.5h1.9v1.4h1.3v3.1h3.9c0,0,0.3,1.7-0.9,1.8s-6.9,0-6.9,0c-0.5,0-0.9-0.3-1-0.8c-0.1-0.3-0.1-0.7,0-1
	h4.3v-1.7h-2.5L485.6,147.5z"/>
<path class="st1" d="M481.5,152.1v5.3h13.3v-5.3h-1.5c0,0,0.3,2.4-1.3,2.4h-7.3c0,0-1.6-0.2-1.7-1.4s0-1.1,0-1.1L481.5,152.1z"/>
<rect x="500.1" y="133.8" class="st1" width="1.7" height="3.5"/>
<rect x="507" y="140.6" class="st1" width="1.5" height="6.3"/>
<circle class="st0" cx="375.6" cy="101.5" r="15"/>
<circle class="st1" cx="375.6" cy="101.5" r="13.5"/>
<circle class="st29" cx="484.8" cy="102.6" r="13.5"/>
<path class="st30" d="M375.6,96.2c-3.3,0-6.2,1.9-7.6,4.9c0,0.1,0,0.2,0,0.3c2,4.2,6.9,6,11.2,4.1c1.8-0.8,3.2-2.3,4.1-4.1
	c0-0.1,0-0.2,0-0.3C381.8,98.1,378.8,96.2,375.6,96.2 M375.6,104.6c-1.9,0-3.4-1.5-3.4-3.5s1.5-3.4,3.5-3.4c1.9,0,3.4,1.5,3.4,3.5
	C379,103.1,377.5,104.6,375.6,104.6"/>
<circle class="st30" cx="375.6" cy="101.2" r="2.2"/>
<path class="st1" d="M409.2,99.9h10c0.3,0,0.6,0.3,0.6,0.6v1c0,0.3-0.3,0.6-0.6,0.6h-10c-0.3,0-0.6-0.3-0.6-0.6v-1"/>
<path class="st1" d="M413.7,95.4h1c0.3,0,0.6,0.3,0.6,0.6v10c0,0.3-0.3,0.6-0.6,0.6h-1c-0.3,0-0.6-0.3-0.6-0.6V96"/>
<path class="st25" d="M454,87.6h-14.5v27H461v-20L454,87.6z M457.4,94h-2.8v-2.8L457.4,94z M441.6,112.5V89.7h10.9V95
	c0,0.6,0.4,1,0.9,1.1c0,0,0,0,0.1,0h5.3v16.4H441.6z"/>
<rect x="444.2" y="108.6" class="st25" width="12.1" height="1.4"/>
<rect x="444.2" y="95.4" class="st25" width="7.2" height="1.4"/>
<polygon class="st25" points="453.8,99.8 454.5,99.8 451.5,102.8 449.2,100.5 444,105.7 445,106.7 449.2,102.5 451.5,104.8 
	455.5,100.8 455.5,101.6 457,101.6 457,98.4 453.8,98.4 "/>
<rect x="444.2" y="92.3" class="st25" width="7.2" height="1.4"/>
<g>
	<g>
		<path class="st0" d="M479.7,100.1c0.2,0.1,0.6,0.5,1.5,1s1.4,1,1.9,1.3c0,0,0.1,0.1,0.3,0.2c0.2,0.1,0.3,0.2,0.4,0.3
			c0.1,0.1,0.2,0.1,0.4,0.2c0.1,0.1,0.3,0.1,0.4,0.2c0.1,0,0.2,0.1,0.4,0.1l0,0l0,0c0.1,0,0.2,0,0.4-0.1c0.1,0,0.3-0.1,0.4-0.2
			s0.3-0.2,0.4-0.2c0.1-0.1,0.2-0.2,0.4-0.3c0.2-0.1,0.3-0.2,0.3-0.2c0.4-0.3,1.5-1.1,3.3-2.3c0.3-0.2,0.6-0.5,0.9-0.9
			c0.2-0.3,0.3-0.7,0.3-1.1c0-0.3-0.1-0.6-0.3-0.8c-0.2-0.2-0.5-0.3-0.8-0.3h-10.5c-0.4,0-0.6,0.1-0.8,0.4c-0.2,0.2-0.3,0.6-0.3,0.9
			s0.1,0.6,0.4,1C479.1,99.6,479.4,99.9,479.7,100.1z"/>
		<path class="st0" d="M490.5,100.9c-1.6,1.1-2.7,1.9-3.5,2.5c-0.3,0.2-0.5,0.4-0.7,0.5s-0.4,0.2-0.7,0.3c-0.3,0.1-0.5,0.2-0.8,0.2
			l0,0l0,0c-0.2,0-0.5-0.1-0.8-0.2s-0.5-0.2-0.7-0.3c-0.2-0.1-0.4-0.3-0.7-0.5c-0.6-0.5-1.8-1.3-3.5-2.5c-0.3-0.2-0.5-0.4-0.7-0.6
			v5.6c0,0.3,0.1,0.6,0.3,0.8c0.2,0.2,0.5,0.3,0.8,0.3H490c0.3,0,0.6-0.1,0.8-0.3c0.2-0.2,0.3-0.5,0.3-0.8v-5.6
			C491,100.5,490.7,100.7,490.5,100.9z"/>
	</g>
</g>
<g>
	<path class="st25" d="M532.5,137h-8.4c-1.2,0-2.2,1-2.2,2.2v16.4c0,1.2,1,2.2,2.2,2.2h11.5c1.2,0,2.2-1,2.2-2.2v-13.4L532.5,137z
		 M535.5,156.5H524c-0.5,0-0.9-0.4-0.9-0.9v-16.4c0-0.5,0.4-0.9,0.9-0.9h7.9v2.9c0,0.9,0.7,1.5,1.5,1.5h2.9v12.9
		C536.4,156.1,536,156.5,535.5,156.5z"/>
	<path class="st25" d="M532.3,147.2h-1.1V144c0-0.3-0.3-0.6-0.6-0.6H529c-0.3,0-0.6,0.3-0.6,0.6v3.2h-1.1c-0.2,0-0.3,0.1-0.4,0.3
		c-0.1,0.2,0,0.4,0.1,0.5l2.4,2.4c0.2,0.2,0.4,0.2,0.6,0l2.4-2.4c0.1-0.1,0.2-0.3,0.1-0.5C532.6,147.3,532.4,147.2,532.3,147.2z"/>
</g>
<circle class="st29" cx="521.8" cy="102.6" r="13.5"/>
<g>
	<path class="st0" d="M524,94.8h-6.4c-0.9,0-1.7,0.8-1.7,1.7v12.6c0,0.9,0.8,1.7,1.7,1.7h8.8c0.9,0,1.7-0.8,1.7-1.7V98.8L524,94.8z
		 M526.4,109.8h-8.8c-0.4,0-0.7-0.3-0.7-0.7V96.5c0-0.4,0.3-0.7,0.7-0.7h6V98c0,0.7,0.5,1.2,1.2,1.2h2.2v9.9
		C527,109.5,526.7,109.8,526.4,109.8z"/>
	<path class="st0" d="M523.8,102.7H523v-2.4c0-0.2-0.2-0.4-0.4-0.4h-1.2c-0.2,0-0.4,0.2-0.4,0.4v2.4h-0.8c-0.1,0-0.3,0.1-0.3,0.2
		c-0.1,0.1,0,0.3,0.1,0.4l1.9,1.9c0.1,0.1,0.3,0.1,0.5,0l1.9-1.9c0.1-0.1,0.1-0.2,0.1-0.4C524.1,102.7,524,102.7,523.8,102.7z"/>
	<line class="st31" x1="520.2" y1="106.6" x2="523.9" y2="106.6"/>
</g>
<line class="st32" x1="527.3" y1="152.6" x2="532.4" y2="152.6"/>
<circle class="st29" cx="203.2" cy="188.5" r="13.5"/>
<g>
	<path class="st0" d="M204.7,184.4l2.5,2.5l-6.3,6.3l-2.5-2.5L204.7,184.4z M209.1,183.8l-1.1-1.1c-0.4-0.4-1.1-0.4-1.6,0l-1.1,1.1
		l2.5,2.5l1.2-1.2C209.4,184.7,209.4,184.2,209.1,183.8z M197.1,194.3c0,0.2,0.1,0.4,0.3,0.3l2.8-0.7l-2.5-2.5L197.1,194.3z"/>
</g>
<circle class="st29" cx="240" cy="188.8" r="13.5"/>
<path class="st0" d="M242.1,190.1l-1.1,1.1l-3.2-3.2l1.1-1.1L242.1,190.1z M246,188.3l0.5-5.8l-5.8,0.5l2,2l-2,2l1.3,1.3l2-2
	L246,188.3z M237.9,189.7l-2,2l-2-2l-0.5,5.8l5.8-0.5l-2-2l2-2L237.9,189.7z"/>
<circle class="st29" cx="277.1" cy="188.7" r="13.5"/>
<g>
	<g>
		<path class="st0" d="M271.4,194.3v-11.2c0-0.5,0.4-0.9,0.9-0.9h9.3c0.5,0,0.9,0.4,0.9,0.9v5.5l0.9-0.9v-4.5c0-1-0.8-1.9-1.9-1.9
			h-9.3c-1,0-1.9,0.8-1.9,1.9v11.2c0,1,0.8,1.9,1.9,1.9h5.1v-0.9h-5.1C271.8,195.3,271.4,194.9,271.4,194.3z M280.7,184.1h-7.4v0.9
			h7.4V184.1z M280.7,186h-7.4v0.9h7.4V186z M280.7,187.8h-7.4v0.9h7.4V187.8z M273.3,190.6h3.7v-0.9h-3.7V190.6z M285.1,189.7
			l-0.7-0.7c-0.2-0.2-0.4-0.3-0.7-0.3c-0.2,0-0.5,0.1-0.7,0.3l-4,4c-0.2,0.2-0.7,0.9-0.7,1.1l-0.5,2.1l2.1-0.5c0,0,0.9-0.6,1.1-0.7
			l4-4C285.5,190.6,285.5,190.1,285.1,189.7z M280.8,194.7c-0.1,0.1-0.2,0.2-0.5,0.3l-1.2-1.2c0.1-0.2,0.3-0.3,0.3-0.4l3-3l1.3,1.3
			L280.8,194.7z"/>
	</g>
</g>
</svg>
