<svg id="Layer_1" data-name="Layer 1" xmlns="http://www.w3.org/2000/svg" width="548.91" height="170.06" viewBox="0 0 548.91 170.06"><defs><style>.cls-1{fill:#db2d27;}.cls-2{fill:#fff;}.cls-3{fill:#09783d;}.cls-4{fill:#f89a35;}.cls-5{fill:#ef4535;}.cls-6{fill:#b4b4b4;}.cls-7{fill:#989898;}.cls-15,.cls-16,.cls-20,.cls-21,.cls-23,.cls-25,.cls-26,.cls-32,.cls-8{fill:none;}.cls-9{fill:#010101;}.cls-10{fill:#515e73;}.cls-11{opacity:0.2;}.cls-12{fill:#231f20;}.cls-13{fill:#4f4f50;}.cls-14{fill:#939292;}.cls-15,.cls-16{stroke:#303030;}.cls-15,.cls-16,.cls-20,.cls-21,.cls-23,.cls-26,.cls-32{stroke-linecap:round;stroke-linejoin:round;}.cls-16,.cls-21,.cls-32{stroke-width:2px;}.cls-17{fill:#96cd7b;}.cls-18{fill:#f26f6e;}.cls-19{fill:#ccc;}.cls-20,.cls-21{stroke:#b4b4b4;}.cls-22{fill:#2a517a;}.cls-23,.cls-25{stroke:#306090;}.cls-24{fill:#306090;}.cls-25{stroke-miterlimit:10;}.cls-26,.cls-32{stroke:#2f6191;}.cls-27,.cls-34{fill:#2f6191;}.cls-28{fill:#2d3f50;}.cls-29{fill:#3d97d3;}.cls-30{isolation:isolate;}.cls-31{fill:#505050;}.cls-33{fill:#f3f3f3;}.cls-34{font-size:4px;font-family:Roboto-Bold, Roboto;font-weight:700;}</style></defs><title>icon_sprite</title><circle class="cls-1" cx="277" cy="25.17" r="20"/><circle class="cls-2" cx="277" cy="25.17" r="18"/><g id="Exel_download" data-name="Exel download"><path class="cls-3" d="M279.42,30.06h-1.31l-1.26-2-1.26,2h-1.23l1.79-2.79-1.68-2.62h1.27l1.17,1.95,1.14-1.95h1.24l-1.7,2.68Z"/><path class="cls-3" d="M283.21,27.54A3.79,3.79,0,1,0,287,31.32,3.79,3.79,0,0,0,283.21,27.54Zm1.72,2.68,0,0-1.3,1.81a.47.47,0,0,1-.8,0l-1.32-1.83a.47.47,0,0,1,.41-.71h.68v-1a.47.47,0,0,1,.47-.47h.32a.47.47,0,0,1,.47.47v1h.68a.47.47,0,0,1,.41.71Z"/><polygon class="cls-4" points="280.05 34.79 280.05 34.8 280.05 34.8 280.05 34.79"/><polygon class="cls-4" points="284.79 27.06 284.79 27.05 284.78 27.06 284.79 27.06"/><path class="cls-3" d="M284.33,21.89l-6.21-6.21a1.57,1.57,0,0,0-1.12-.46h-6.42A1.58,1.58,0,0,0,269,16.8V33.22a1.58,1.58,0,0,0,1.58,1.58H280l-.63-.63h-8.83a1,1,0,0,1-.95-.95V16.8a1,1,0,0,1,.95-.95H277a.94.94,0,0,1,.67.28l6.21,6.21a1,1,0,0,1,.28.67v3.42l.63.63V23A1.57,1.57,0,0,0,284.33,21.89Z"/><polyline class="cls-2" points="284.78 27.06 284.79 27.05 284.16 26.42"/></g><circle class="cls-1" cx="226" cy="25.17" r="20"/><circle class="cls-2" cx="226" cy="25.17" r="18"/><g id="Pdf_download" data-name="Pdf download"><path class="cls-5" d="M231.82,27.59a.5.5,0,0,0-.15-.25,2,2,0,0,0-1.3-.31,10.76,10.76,0,0,0-1.57.12,3.9,3.9,0,0,1-.73-.5,5.3,5.3,0,0,1-1.31-2l.05-.21a13.24,13.24,0,0,0,.23-2.38.69.69,0,0,0,0-.17l0-.07a.56.56,0,0,0-.51-.39h-.16a.58.58,0,0,0-.59.37,6.91,6.91,0,0,0,.36,3.11l-.09.22c-.25.62-.57,1.25-.85,1.8l0,.07c-.3.58-.57,1.07-.81,1.49l-.25.13-.55.3A3.08,3.08,0,0,0,222,30.42a.38.38,0,0,0,.15.42l.24.12a.75.75,0,0,0,.33.08c.61,0,1.32-.76,2.3-2.47a22.85,22.85,0,0,1,3.54-.84,6.1,6.1,0,0,0,2.58.82,1.19,1.19,0,0,0,.3,0,.53.53,0,0,0,.3-.21A1.09,1.09,0,0,0,231.82,27.59Zm-9.27,3a4.24,4.24,0,0,1,1.2-1.44l.23-.22A4.36,4.36,0,0,1,222.55,30.59Zm3.86-8.89c.2,0,.31.49.32,1a2,2,0,0,1-.23,1,5,5,0,0,1-.17-1.29S226.32,21.69,226.41,21.69ZM225.26,28l.42-.78a14.55,14.55,0,0,0,.75-1.63,5.38,5.38,0,0,0,1.23,1.53l.19.15A15.62,15.62,0,0,0,225.26,28Zm6.23-.06a.91.91,0,0,1-.34.06,4,4,0,0,1-1.42-.43l.65,0a2.51,2.51,0,0,1,.82.09C231.54,27.76,231.55,27.94,231.49,28Z"/><path class="cls-5" d="M233.21,27.54A3.79,3.79,0,1,0,237,31.32,3.79,3.79,0,0,0,233.21,27.54Zm1.72,2.68,0,0-1.3,1.81a.47.47,0,0,1-.8,0l-1.32-1.83a.47.47,0,0,1,.41-.71h.68v-1a.47.47,0,0,1,.47-.47h.32a.47.47,0,0,1,.47.47v1h.68a.47.47,0,0,1,.41.71Z"/><polygon class="cls-4" points="230.05 34.79 230.04 34.8 230.05 34.8 230.05 34.79"/><polygon class="cls-4" points="234.79 27.06 234.79 27.05 234.78 27.06 234.79 27.06"/><path class="cls-5" d="M234.33,21.89l-6.21-6.21a1.57,1.57,0,0,0-1.12-.46h-6.42A1.58,1.58,0,0,0,219,16.8V33.22a1.58,1.58,0,0,0,1.58,1.58H230l-.63-.63h-8.83a1,1,0,0,1-.95-.95V16.8a1,1,0,0,1,.95-.95H227a.94.94,0,0,1,.67.28l6.21,6.21a1,1,0,0,1,.28.67v3.42l.63.63V23A1.57,1.57,0,0,0,234.33,21.89Z"/><polyline class="cls-2" points="234.78 27.06 234.79 27.05 234.16 26.42"/></g><circle class="cls-1" cx="126" cy="25.17" r="20"/><circle class="cls-2" cx="126" cy="25.17" r="18"/><path class="cls-1" d="M133.88,19.34l-3.08-3.08H124v2.46h-3.69V32.26h9.85V29.8h3.69Zm-3.08-2.21L133,19.34H130.8ZM121,31.65V19.34h5.54v3.08h3.08v9.23Zm6.15-12.05,2.21,2.21h-2.21Zm3.08,9.59V21.8l-3.08-3.08h-2.46V16.88h5.54V20h3.08v9.23Z"/><circle class="cls-1" cx="25" cy="25.17" r="20"/><circle class="cls-2" cx="25" cy="25.17" r="18"/><path class="cls-1" d="M31.4,23.57H26.6v-4.8a1.6,1.6,0,0,0-3.2,0v4.8H18.6a1.6,1.6,0,0,0,0,3.2h4.8v4.8a1.6,1.6,0,1,0,3.2,0v-4.8h4.8a1.6,1.6,0,1,0,0-3.2Z"/><circle class="cls-1" cx="75" cy="25.17" r="20"/><circle class="cls-2" cx="75" cy="25.17" r="18"/><path class="cls-1" d="M73,23.5v6a.32.32,0,0,1-.33.33H72a.32.32,0,0,1-.33-.33v-6a.32.32,0,0,1,.33-.33h.67a.32.32,0,0,1,.33.33Zm2.67,0v6a.32.32,0,0,1-.33.33h-.67a.32.32,0,0,1-.33-.33v-6a.32.32,0,0,1,.33-.33h.67a.32.32,0,0,1,.33.33Zm2.67,0v6a.32.32,0,0,1-.33.33h-.67A.32.32,0,0,1,77,29.5v-6a.32.32,0,0,1,.33-.33H78a.32.32,0,0,1,.33.33ZM79.67,31V21.17H70.33V31a1.18,1.18,0,0,0,.07.42.93.93,0,0,0,.15.28q.08.09.11.09h8.67s.06,0,.11-.09a.93.93,0,0,0,.15-.28A1.18,1.18,0,0,0,79.67,31Zm-7-11.21h4.67l-.5-1.22a.29.29,0,0,0-.18-.11h-3.3a.29.29,0,0,0-.18.11Zm9.67.33v.67a.32.32,0,0,1-.33.33H81V31a2.36,2.36,0,0,1-.49,1.49,1.45,1.45,0,0,1-1.18.63H70.67a1.47,1.47,0,0,1-1.18-.61A2.28,2.28,0,0,1,69,31.08V21.17H68a.32.32,0,0,1-.33-.33v-.67a.32.32,0,0,1,.33-.33h3.22l.73-1.74a1.44,1.44,0,0,1,.56-.66,1.47,1.47,0,0,1,.82-.27h3.33a1.47,1.47,0,0,1,.82.27,1.44,1.44,0,0,1,.56.66l.73,1.74H82a.32.32,0,0,1,.33.33Z"/><circle class="cls-1" cx="175" cy="25.17" r="20"/><circle class="cls-2" cx="175" cy="25.17" r="18"/><g id="transfer"><polygon class="cls-1" points="183.67 30.39 170.74 30.51 170.76 33.17 166.42 29.23 170.69 25.21 170.71 27.86 183.65 27.73 183.67 30.39"/><polygon class="cls-1" points="166.35 22.6 179.28 22.47 179.31 25.12 183.58 21.1 179.23 17.17 179.26 19.82 166.33 19.95 166.35 22.6"/></g><circle class="cls-6" cx="276" cy="84" r="20"/><circle class="cls-2" cx="276" cy="84" r="18"/><g id="Exel_download-2" data-name="Exel download"><path class="cls-7" d="M278.42,88.89h-1.31l-1.26-2-1.26,2h-1.23l1.79-2.79-1.68-2.62h1.27l1.17,1.95,1.14-1.95h1.24l-1.7,2.68Z"/><path class="cls-7" d="M282.21,86.37A3.79,3.79,0,1,0,286,90.16,3.79,3.79,0,0,0,282.21,86.37Zm1.72,2.68,0,0-1.3,1.81a.47.47,0,0,1-.8,0l-1.32-1.83a.47.47,0,0,1,.41-.71h.68v-1a.47.47,0,0,1,.47-.47h.32a.47.47,0,0,1,.47.47v1h.68a.47.47,0,0,1,.41.71Z"/><polygon class="cls-7" points="279.05 93.62 279.05 93.63 279.05 93.63 279.05 93.62"/><polygon class="cls-7" points="283.79 85.89 283.79 85.89 283.78 85.89 283.79 85.89"/><path class="cls-7" d="M283.33,80.72l-6.21-6.21a1.57,1.57,0,0,0-1.12-.46h-6.42A1.58,1.58,0,0,0,268,75.63V92.05a1.58,1.58,0,0,0,1.58,1.58H279l-.63-.63h-8.83a1,1,0,0,1-.95-.95V75.63a1,1,0,0,1,.95-.95H276a.94.94,0,0,1,.67.28l6.21,6.21a1,1,0,0,1,.28.67v3.42l.63.63v-4A1.57,1.57,0,0,0,283.33,80.72Z"/><polyline class="cls-7" points="283.78 85.89 283.79 85.89 283.16 85.25"/></g><circle class="cls-6" cx="226" cy="83" r="20"/><circle class="cls-2" cx="226" cy="83" r="18"/><g id="Pdf_download-2" data-name="Pdf download"><path class="cls-7" d="M231.82,85.42a.5.5,0,0,0-.15-.25,2,2,0,0,0-1.3-.31,10.76,10.76,0,0,0-1.57.12,3.9,3.9,0,0,1-.73-.5,5.3,5.3,0,0,1-1.31-2l.05-.21a13.24,13.24,0,0,0,.23-2.38.69.69,0,0,0,0-.17l0-.07a.56.56,0,0,0-.51-.39h-.16a.58.58,0,0,0-.59.37,6.91,6.91,0,0,0,.36,3.11l-.09.22c-.25.62-.57,1.25-.85,1.8l0,.07c-.3.58-.57,1.07-.81,1.49l-.25.13-.55.3A3.08,3.08,0,0,0,222,88.26a.38.38,0,0,0,.15.42l.24.12a.75.75,0,0,0,.33.08c.61,0,1.32-.76,2.3-2.47a22.85,22.85,0,0,1,3.54-.84,6.1,6.1,0,0,0,2.58.82,1.19,1.19,0,0,0,.3,0,.53.53,0,0,0,.3-.21A1.09,1.09,0,0,0,231.82,85.42Zm-9.27,3a4.24,4.24,0,0,1,1.2-1.44l.23-.22A4.36,4.36,0,0,1,222.55,88.42Zm3.86-8.89c.2,0,.31.49.32,1a2,2,0,0,1-.23,1,5,5,0,0,1-.17-1.29S226.32,79.53,226.41,79.53Zm-1.15,6.34.42-.78a14.55,14.55,0,0,0,.75-1.63A5.38,5.38,0,0,0,227.66,85l.19.15A15.62,15.62,0,0,0,225.26,85.86Zm6.23-.06a.91.91,0,0,1-.34.06,4,4,0,0,1-1.42-.43l.65,0a2.51,2.51,0,0,1,.82.09C231.54,85.59,231.55,85.77,231.49,85.81Z"/><path class="cls-7" d="M233.21,85.37A3.79,3.79,0,1,0,237,89.16,3.79,3.79,0,0,0,233.21,85.37Zm1.72,2.68,0,0-1.3,1.81a.47.47,0,0,1-.8,0l-1.32-1.83a.47.47,0,0,1,.41-.71h.68v-1a.47.47,0,0,1,.47-.47h.32a.47.47,0,0,1,.47.47v1h.68a.47.47,0,0,1,.41.71Z"/><polygon class="cls-7" points="230.05 92.62 230.04 92.63 230.05 92.63 230.05 92.62"/><polygon class="cls-7" points="234.79 84.89 234.79 84.89 234.78 84.89 234.79 84.89"/><path class="cls-7" d="M234.33,79.72l-6.21-6.21a1.57,1.57,0,0,0-1.12-.46h-6.42A1.58,1.58,0,0,0,219,74.63V91.05a1.58,1.58,0,0,0,1.58,1.58H230l-.63-.63h-8.83a1,1,0,0,1-.95-.95V74.63a1,1,0,0,1,.95-.95H227a.94.94,0,0,1,.67.28l6.21,6.21a1,1,0,0,1,.28.67v3.42l.63.63v-4A1.57,1.57,0,0,0,234.33,79.72Z"/><polyline class="cls-7" points="234.78 84.89 234.79 84.89 234.16 84.25"/></g><circle class="cls-6" cx="126" cy="85" r="20"/><circle class="cls-2" cx="126" cy="85" r="18"/><path class="cls-7" d="M133.88,79.17,130.8,76.1H124v2.46h-3.69V92.1h9.85V89.64h3.69ZM130.8,77,133,79.17H130.8ZM121,91.48V79.17h5.54v3.08h3.08v9.23Zm6.15-12.05,2.21,2.21h-2.21ZM130.19,89V81.64l-3.08-3.08h-2.46V76.71h5.54v3.08h3.08V89Z"/><circle class="cls-6" cx="25" cy="85" r="20"/><circle class="cls-2" cx="25" cy="85" r="18"/><path class="cls-7" d="M31.4,83.4H26.6V78.6a1.6,1.6,0,0,0-3.2,0v4.8H18.6a1.6,1.6,0,0,0,0,3.2h4.8v4.8a1.6,1.6,0,0,0,3.2,0V86.6h4.8a1.6,1.6,0,1,0,0-3.2Z"/><circle class="cls-6" cx="75" cy="85" r="20"/><circle class="cls-2" cx="75" cy="85" r="18"/><path class="cls-7" d="M73,83.33v6a.32.32,0,0,1-.33.33H72a.32.32,0,0,1-.33-.33v-6A.32.32,0,0,1,72,83h.67a.32.32,0,0,1,.33.33Zm2.67,0v6a.32.32,0,0,1-.33.33h-.67a.32.32,0,0,1-.33-.33v-6a.32.32,0,0,1,.33-.33h.67a.32.32,0,0,1,.33.33Zm2.67,0v6a.32.32,0,0,1-.33.33h-.67a.32.32,0,0,1-.33-.33v-6a.32.32,0,0,1,.33-.33H78a.32.32,0,0,1,.33.33Zm1.33,7.54V81H70.33v9.88a1.18,1.18,0,0,0,.07.42.93.93,0,0,0,.15.28q.08.09.11.09h8.67s.06,0,.11-.09a.93.93,0,0,0,.15-.28A1.18,1.18,0,0,0,79.67,90.88Zm-7-11.21h4.67l-.5-1.22a.29.29,0,0,0-.18-.11h-3.3a.29.29,0,0,0-.18.11Zm9.67.33v.67A.32.32,0,0,1,82,81H81v9.88a2.36,2.36,0,0,1-.49,1.49,1.45,1.45,0,0,1-1.18.63H70.67a1.47,1.47,0,0,1-1.18-.61A2.28,2.28,0,0,1,69,90.92V81H68a.32.32,0,0,1-.33-.33V80a.32.32,0,0,1,.33-.33h3.22l.73-1.74a1.44,1.44,0,0,1,.56-.66,1.47,1.47,0,0,1,.82-.27h3.33a1.47,1.47,0,0,1,.82.27,1.44,1.44,0,0,1,.56.66l.73,1.74H82a.32.32,0,0,1,.33.33Z"/><circle class="cls-6" cx="175" cy="85" r="20"/><circle class="cls-2" cx="175" cy="85" r="18"/><g id="transfer-2" data-name="transfer"><polygon class="cls-7" points="183.67 90.22 170.74 90.35 170.76 93 166.42 89.06 170.69 85.04 170.71 87.69 183.65 87.57 183.67 90.22"/><polygon class="cls-7" points="166.35 82.43 179.28 82.31 179.31 84.96 183.58 80.94 179.23 77 179.26 79.65 166.33 79.78 166.35 82.43"/></g><rect class="cls-8" width="50" height="50"/><rect class="cls-8" x="50" width="50" height="50"/><rect class="cls-8" x="100" width="50" height="50"/><rect class="cls-8" x="150" width="50" height="50"/><rect class="cls-8" x="200" width="50" height="50"/><rect class="cls-8" x="250" width="50" height="50"/><rect class="cls-8" y="60" width="50" height="50"/><rect class="cls-8" x="50" y="60" width="50" height="50"/><rect class="cls-8" x="100" y="60" width="50" height="50"/><rect class="cls-8" x="150" y="60" width="50" height="50"/><rect class="cls-8" x="200" y="60" width="50" height="50"/><rect class="cls-8" x="250" y="60" width="50" height="50"/><g id="layer3"><path id="rect4208" class="cls-9" d="M318.8,12a4.79,4.79,0,0,0-4.8,4.8V31.2a4.79,4.79,0,0,0,4.8,4.8h14.4a4.79,4.79,0,0,0,4.8-4.8V16.8a4.79,4.79,0,0,0-4.8-4.8Zm7,3.41a8.13,8.13,0,0,1,6.95,3.92l1.69-1,.09,5.65-5-2.68,1.79-1.09a6.47,6.47,0,0,0-11.55,1,1.88,1.88,0,0,1-.07.2.94.94,0,0,1-1.18.59.83.83,0,0,1-.45-.78,1.85,1.85,0,0,1,.14-.57A8.14,8.14,0,0,1,325.77,15.41ZM317.51,24l5,2.68L320.7,27.8a6.47,6.47,0,0,0,11.55-1,1.88,1.88,0,0,1,.07-.2.94.94,0,0,1,1.18-.59.83.83,0,0,1,.45.78,1.85,1.85,0,0,1-.14.57,8.12,8.12,0,0,1-14.53,1.29l-1.69,1Z"/></g><path class="cls-9" d="M318.64,56.16l.08.1,6.38,7.34a1.19,1.19,0,0,0,.9.4,1.2,1.2,0,0,0,.9-.4l6.37-7.32.11-.12a.72.72,0,0,0,.13-.41.76.76,0,0,0-.78-.74H319.28a.76.76,0,0,0-.78.74A.72.72,0,0,0,318.64,56.16Z"/><path class="cls-9" d="M322.66,93.86l.1-.08,7.34-6.38a1.19,1.19,0,0,0,.4-.9,1.2,1.2,0,0,0-.4-.9l-7.32-6.37-.12-.11a.72.72,0,0,0-.41-.13.76.76,0,0,0-.74.78h0V93.22h0a.76.76,0,0,0,.74.78A.72.72,0,0,0,322.66,93.86Z"/><path class="cls-2" d="M348.64,56.16l.08.1,6.38,7.34a1.19,1.19,0,0,0,.9.4,1.2,1.2,0,0,0,.9-.4l6.37-7.32.11-.12a.72.72,0,0,0,.13-.41.76.76,0,0,0-.78-.74H349.28a.76.76,0,0,0-.78.74A.72.72,0,0,0,348.64,56.16Z"/><path class="cls-2" d="M355.16,92.86l.1-.08,7.34-6.38a1.19,1.19,0,0,0,.4-.9,1.2,1.2,0,0,0-.4-.9l-7.32-6.37-.12-.11a.72.72,0,0,0-.41-.13.76.76,0,0,0-.74.78h0V92.22h0a.76.76,0,0,0,.74.78A.72.72,0,0,0,355.16,92.86Z"/><g id="close"><circle class="cls-9" cx="357.61" cy="24.86" r="9"/><path class="cls-2" d="M361,20.89l.62.62a.55.55,0,0,1,0,.78L355,28.82a.55.55,0,0,1-.78,0l-.62-.62a.55.55,0,0,1,0-.78l6.53-6.53A.55.55,0,0,1,361,20.89Z"/><path class="cls-2" d="M361.57,28.2l-.62.62a.55.55,0,0,1-.78,0l-6.53-6.53a.55.55,0,0,1,0-.78l.62-.62a.55.55,0,0,1,.78,0l6.53,6.53A.55.55,0,0,1,361.57,28.2Z"/></g><g id="close-2" data-name="close"><circle class="cls-1" cx="387.61" cy="25" r="9"/><path class="cls-2" d="M391,21l.62.62a.55.55,0,0,1,0,.78L385,29a.55.55,0,0,1-.78,0l-.62-.62a.55.55,0,0,1,0-.78L390.17,21A.55.55,0,0,1,391,21Z"/><path class="cls-2" d="M391.57,28.33,391,29a.55.55,0,0,1-.78,0l-6.53-6.53a.55.55,0,0,1,0-.78l.62-.62a.55.55,0,0,1,.78,0l6.53,6.53A.55.55,0,0,1,391.57,28.33Z"/></g><g id="close-3" data-name="close"><circle class="cls-1" cx="389.55" cy="90" r="9"/></g><path class="cls-9" d="M407.9,20.14h15.37a1.32,1.32,0,0,0,1.27-.87,1.29,1.29,0,0,0-1.22-1.71H408a1.32,1.32,0,0,0-1.27.87A1.29,1.29,0,0,0,407.9,20.14Zm15.43,2.57H408a1.32,1.32,0,0,0-1.27.87,1.29,1.29,0,0,0,1.22,1.71h15.37a1.32,1.32,0,0,0,1.27-.87A1.29,1.29,0,0,0,423.33,22.71Zm0,5.14H408a1.32,1.32,0,0,0-1.27.87,1.29,1.29,0,0,0,1.22,1.71h15.37a1.32,1.32,0,0,0,1.27-.87A1.29,1.29,0,0,0,423.33,27.86Z"/><g id="Layer_1-5" data-name="Layer 1"><circle class="cls-10" cx="386.85" cy="59.5" r="9"/><g class="cls-11"><path class="cls-12" d="M390.19,63.87a2.46,2.46,0,0,1-1.59-1.82,5.71,5.71,0,0,0,1.73-2.69,2.25,2.25,0,0,0,.55-1.3.75.75,0,0,0-.27-.61A4,4,0,0,0,387,53.32h-.06a4,4,0,0,0-3.69,4.05.75.75,0,0,0-.39.69,2.47,2.47,0,0,0,.75,1.53A5.7,5.7,0,0,0,385.1,62a2.45,2.45,0,0,1-1.6,1.91c-.61.26-1.72.5-2.2.75a8.06,8.06,0,0,0,5.51,2.2h0a8,8,0,0,0,5.54-2.2C391.91,64.37,390.8,64.14,390.19,63.87Z"/></g><path class="cls-2" d="M390.19,63.31a2.46,2.46,0,0,1-1.59-1.82,5.71,5.71,0,0,0,1.73-2.69,2.25,2.25,0,0,0,.55-1.3.75.75,0,0,0-.27-.61A4,4,0,0,0,387,52.75h-.06a4,4,0,0,0-3.69,4.05.75.75,0,0,0-.39.69,2.47,2.47,0,0,0,.75,1.53,5.7,5.7,0,0,0,1.55,2.37,2.45,2.45,0,0,1-1.6,1.91c-.61.26-1.72.5-2.2.75a8.06,8.06,0,0,0,5.51,2.2h0a8,8,0,0,0,5.54-2.2C391.91,63.81,390.8,63.57,390.19,63.31Z"/></g><g id="arrow_right_alt1"><path class="cls-13" d="M448,35.44a9,9,0,1,0-9-9A9,9,0,0,0,448,35.44Zm0-13.75v3.38h4.5v2.25H448v3.36l-4.47-4.48Z"/></g><g id="arrow_right_alt1-2" data-name="arrow_right_alt1"><path class="cls-13" d="M448,51.44a9,9,0,1,0,9,9A9,9,0,0,0,448,51.44Zm0,13.75V61.81h-4.5V59.56H448V56.2l4.47,4.48Z"/></g><g id="Page-1"><g id="icon-111-search"><path id="search" class="cls-14" d="M419.72,63.22a6.27,6.27,0,1,1,.8-.68L424.93,67a.52.52,0,0,1-.74.74l-4.48-4.48Zm-3.63.42a5.53,5.53,0,1,0-5.53-5.53,5.53,5.53,0,0,0,5.53,5.53Z"/></g></g><g id="Icons"><path class="cls-15" d="M476.36,36.1h0a9,9,0,0,1-9-9h0a9,9,0,0,1,9-9h0a9,9,0,0,1,9,9h0A9,9,0,0,1,476.36,36.1Z"/><line class="cls-16" x1="476.5" y1="22.09" x2="476.5" y2="31.41"/><line class="cls-16" x1="472" y1="26.75" x2="481" y2="26.75"/></g><g id="Expanded"><path class="cls-9" d="M533.75,36h-1.5a1.12,1.12,0,0,1-1.12-1.12v-1.4a6.69,6.69,0,0,1-1.38-.57l-1,1a1.13,1.13,0,0,1-1.59,0l-1-1a1.12,1.12,0,0,1,0-1.61l1-1a6.65,6.65,0,0,1-.57-1.38h-1.4A1.12,1.12,0,0,1,524,27.75V26.27a1.12,1.12,0,0,1,.12-.53,1.14,1.14,0,0,1,1-.62h1.4a6.7,6.7,0,0,1,.57-1.38l-1-1a1.13,1.13,0,0,1,0-1.59l1.06-1.06a1.13,1.13,0,0,1,1.59,0l1,1a6.69,6.69,0,0,1,1.38-.57v-1.4A1.12,1.12,0,0,1,532.25,18h1.5a1.12,1.12,0,0,1,1.12,1.12v1.4a6.7,6.7,0,0,1,1.38.57l1-1a1.13,1.13,0,0,1,1.59,0l1,1a1.12,1.12,0,0,1,0,1.61l-1,1a6.66,6.66,0,0,1,.57,1.38h1.4A1.12,1.12,0,0,1,542,26.25v1.47a1.12,1.12,0,0,1-1.13,1.15h-1.4a6.69,6.69,0,0,1-.57,1.38l1,1a1.13,1.13,0,0,1,0,1.59l-1.06,1.06a1.13,1.13,0,0,1-1.59,0l-1-1a6.7,6.7,0,0,1-1.38.57v1.4A1.13,1.13,0,0,1,533.75,36Zm-4.07-3.94a.38.38,0,0,1,.2.05,6,6,0,0,0,1.7.71.38.38,0,0,1,.3.37v1.68a.37.37,0,0,0,.37.37h1.5a.37.37,0,0,0,.37-.37V33.19a.38.38,0,0,1,.3-.37,6,6,0,0,0,1.69-.7.38.38,0,0,1,.47,0l1.19,1.19a.38.38,0,0,0,.53,0l1.06-1.06a.38.38,0,0,0,0-.53l-1.19-1.19a.38.38,0,0,1,0-.47,6,6,0,0,0,.7-1.69.38.38,0,0,1,.37-.3h1.68a.37.37,0,0,0,.27-.11.37.37,0,0,0,.11-.26v-1.5a.37.37,0,0,0-.37-.37h-1.68a.38.38,0,0,1-.37-.3,5.94,5.94,0,0,0-.7-1.69.38.38,0,0,1,0-.47l1.19-1.19a.37.37,0,0,0,0-.53l-1.06-1.06a.38.38,0,0,0-.53,0l-1.19,1.19a.38.38,0,0,1-.47.05,6,6,0,0,0-1.69-.7.38.38,0,0,1-.3-.37V19.13a.38.38,0,0,0-.38-.37h-1.5a.37.37,0,0,0-.37.37v1.68a.38.38,0,0,1-.3.37,6,6,0,0,0-1.69.7.38.38,0,0,1-.47-.05l-1.19-1.19a.38.38,0,0,0-.53,0l-1.06,1.06a.38.38,0,0,0,0,.53l1.19,1.19a.38.38,0,0,1,0,.47,6,6,0,0,0-.7,1.69.38.38,0,0,1-.37.3h-1.69a.37.37,0,0,0-.37.37v1.5a.38.38,0,0,0,.37.38h1.68a.38.38,0,0,1,.37.3,6,6,0,0,0,.7,1.69.38.38,0,0,1,0,.47l-1.19,1.19a.37.37,0,0,0,0,.53l1.06,1.06a.38.38,0,0,0,.53,0l1.19-1.19A.37.37,0,0,1,529.68,32.06Z"/><path class="cls-9" d="M532.85,30.88a3.75,3.75,0,1,1,3.75-3.75A3.75,3.75,0,0,1,532.85,30.88Zm0-6.75a3,3,0,1,0,3,3A3,3,0,0,0,532.85,24.13Z"/></g><g id="Layer_1-8" data-name="Layer_1"><path id="Path_557" data-name="Path 557" class="cls-17" d="M10.1,126.15A1.14,1.14,0,0,1,11.24,125H59.59a1.15,1.15,0,0,1,1.15,1.14v35.56a1.15,1.15,0,0,1-1.15,1.14H34.75a7.94,7.94,0,0,0-15.88,0H11.25a1.15,1.15,0,0,1-1.15-1.14Z"/><path id="Path_558" data-name="Path 558" class="cls-9" d="M31.52,158.52a6.76,6.76,0,1,0,2,4.78A6.76,6.76,0,0,0,31.52,158.52Zm-3,4.87a1.74,1.74,0,1,1-1.74-1.74h0a1.74,1.74,0,0,1,1.74,1.74Z"/><path id="Path_559" data-name="Path 559" class="cls-9" d="M66.24,163.3a6.76,6.76,0,1,0,2-4.78A6.76,6.76,0,0,0,66.24,163.3Zm8.5,0A1.74,1.74,0,1,1,73,161.56h0a1.74,1.74,0,0,1,1.74,1.74h0Z"/><path id="Path_560" data-name="Path 560" class="cls-17" d="M73,155.4c4.29,0,7.9,8,7.9,8h3.73a1.15,1.15,0,0,0,1.15-1.15h0V145.06A11.91,11.91,0,0,0,82.65,137,10.39,10.39,0,0,0,75,133.54H61.8V162a9.28,9.28,0,0,1-.44,1.11c.09,0,.19,0,.29-.23H65.1A7.86,7.86,0,0,1,73,155.4Zm5.85-11.73v6.4H70.33V139.94h4.94a3.67,3.67,0,0,1,3.59,3.73Z"/></g><g id="Layer_1-9" data-name="Layer_1"><path id="Path_557-2" data-name="Path 557" class="cls-18" d="M109.21,126.15a1.14,1.14,0,0,1,1.14-1.14h48.34a1.15,1.15,0,0,1,1.15,1.14v35.56a1.15,1.15,0,0,1-1.15,1.14H133.86a7.94,7.94,0,0,0-15.88,0h-7.63a1.15,1.15,0,0,1-1.15-1.14Z"/><path id="Path_558-2" data-name="Path 558" class="cls-9" d="M130.62,158.52a6.76,6.76,0,1,0,2,4.78A6.76,6.76,0,0,0,130.62,158.52Zm-3,4.87a1.74,1.74,0,1,1-1.74-1.74h0a1.74,1.74,0,0,1,1.74,1.74Z"/><path id="Path_559-2" data-name="Path 559" class="cls-9" d="M165.35,163.3a6.76,6.76,0,1,0,2-4.78A6.76,6.76,0,0,0,165.35,163.3Zm8.5,0a1.74,1.74,0,1,1-1.74-1.74h0a1.74,1.74,0,0,1,1.74,1.74h0Z"/><path id="Path_560-2" data-name="Path 560" class="cls-18" d="M172.11,155.4c4.29,0,7.9,8,7.9,8h3.73a1.15,1.15,0,0,0,1.15-1.15h0V145.06a11.91,11.91,0,0,0-3.13-8.11,10.39,10.39,0,0,0-7.63-3.41H160.91V162a9.28,9.28,0,0,1-.44,1.11c.09,0,.19,0,.29-.23h3.46A7.86,7.86,0,0,1,172.11,155.4ZM178,143.67v6.4h-8.53V139.94h4.94a3.67,3.67,0,0,1,3.59,3.73Z"/></g><g id="Layer_1-10" data-name="Layer_1"><path id="Path_557-3" data-name="Path 557" class="cls-19" d="M208.32,126.15a1.14,1.14,0,0,1,1.14-1.14H257.8a1.15,1.15,0,0,1,1.15,1.14v35.56a1.15,1.15,0,0,1-1.15,1.14H233a7.94,7.94,0,0,0-15.88,0h-7.63a1.15,1.15,0,0,1-1.15-1.14Z"/><path id="Path_558-3" data-name="Path 558" class="cls-9" d="M229.73,158.52a6.76,6.76,0,1,0,2,4.78A6.76,6.76,0,0,0,229.73,158.52Zm-3,4.87a1.74,1.74,0,1,1-1.74-1.74h0a1.74,1.74,0,0,1,1.74,1.74Z"/><path id="Path_559-3" data-name="Path 559" class="cls-9" d="M264.46,163.3a6.76,6.76,0,1,0,2-4.78A6.76,6.76,0,0,0,264.46,163.3Zm8.5,0a1.74,1.74,0,1,1-1.74-1.74h0A1.74,1.74,0,0,1,273,163.3h0Z"/><path id="Path_560-3" data-name="Path 560" class="cls-19" d="M271.22,155.4c4.29,0,7.9,8,7.9,8h3.73a1.15,1.15,0,0,0,1.15-1.15h0V145.06a11.91,11.91,0,0,0-3.13-8.11,10.39,10.39,0,0,0-7.63-3.41H260V162a9.28,9.28,0,0,1-.44,1.11c.09,0,.19,0,.29-.23h3.46A7.86,7.86,0,0,1,271.22,155.4Zm5.85-11.73v6.4h-8.53V139.94h4.94a3.67,3.67,0,0,1,3.59,3.73Z"/></g><g id="Page-1-2" data-name="Page-1"><g id="icon-111-search-2" data-name="icon-111-search"><path id="search-2" data-name="search" class="cls-2" d="M391,92a4,4,0,1,1,.51-.43l2.84,2.84a.34.34,0,0,1-.47.47L391,92Zm-2.34.27a3.55,3.55,0,1,0-3.55-3.55,3.55,3.55,0,0,0,3.55,3.55Z"/></g></g><circle class="cls-1" cx="418.77" cy="90" r="9"/><circle class="cls-1" cx="448.23" cy="89.75" r="9"/><path class="cls-2" d="M414.88,86l-.63.64,3.48,3.48L416.5,93H418l.78-1.83L421.61,94l.64-.64L415,86.14Zm1.4,0v.09l1.41,1.41h1.2l-.36.84,1,1,.81-1.89h2.89V86Z"/><path class="cls-2" d="M447.52,93.52l.05,0,3.76-3.26a.61.61,0,0,0,.21-.46.62.62,0,0,0-.21-.46L447.58,86l-.06-.06a.37.37,0,0,0-.21-.06.39.39,0,0,0-.38.4h0v6.88h0a.39.39,0,0,0,.38.4A.37.37,0,0,0,447.52,93.52Z"/><path class="cls-9" d="M476.42,50.88a9,9,0,1,0,9,9A9,9,0,0,0,476.42,50.88Zm0,16.88a7.88,7.88,0,1,1,7.88-7.88A7.88,7.88,0,0,1,476.42,67.76Z"/><path class="cls-9" d="M480.39,59.51h-7.91A.5.5,0,0,0,472,60a.54.54,0,0,0,.45.66h7.91a.5.5,0,0,0,.47-.45A.54.54,0,0,0,480.39,59.51Z"/><g id="Icons-2" data-name="Icons"><path class="cls-20" d="M504.86,35.6h0a9,9,0,0,1-9-9h0a9,9,0,0,1,9-9h0a9,9,0,0,1,9,9h0A9,9,0,0,1,504.86,35.6Z"/><line class="cls-21" x1="505" y1="21.59" x2="505" y2="30.91"/><line class="cls-21" x1="500.5" y1="26.25" x2="509.5" y2="26.25"/></g><path class="cls-6" d="M504.92,50.38a9,9,0,1,0,9,9A9,9,0,0,0,504.92,50.38Zm0,16.88a7.88,7.88,0,1,1,7.88-7.88A7.88,7.88,0,0,1,504.92,67.26Z"/><path class="cls-6" d="M508.89,59H501a.5.5,0,0,0-.47.45.54.54,0,0,0,.45.66h7.91a.5.5,0,0,0,.47-.45A.54.54,0,0,0,508.89,59Z"/><path class="cls-22" d="M331.33,127.87h-.53l0-.72h-1.39v-.58h-.29v.58h-1.73v-.82a.07.07,0,0,0-.07-.09s-.07.09-.07.09v.82h-4v-.22H322.2v.21h-.74c-.85,0-.71.5-.71.5s0,2.19,0,2.78.29.66.29.68h1v1H322v.29h.07v.22h-.29v.13h-1.5c-1,0-.68.87-.68,1.48s.71.68.71.68h.11v.29h.86v-.29h2.59v.29h.86v-.29h4.82v.29h.86v-.29h.06c.63,0,.5-.71.5-.71l-.12-4.54h.49a.25.25,0,0,0,.22-.28v-1.25C331.54,128,331.44,127.87,331.33,127.87Zm-4.65,4.89h-4.12v-.14h-.36v-.93h.36v-.07h.07v.07h.14v-.29h-.14v.07h-.07v.07h-.36v-.43h.86v.36h0v-.39c.38,0,.22-.17.38-.85a.82.82,0,0,1,.8-.68s1.14,0,2.09,0a1,1,0,0,1,1,.87s0,.61,0,1.55S326.68,132.76,326.68,132.76Z"/><circle class="cls-2" cx="329.21" cy="128.7" r="0.79"/><circle class="cls-9" cx="329.21" cy="128.7" r="0.58"/><circle class="cls-2" cx="329.21" cy="130.64" r="0.36"/><circle class="cls-9" cx="329.21" cy="130.64" r="0.26"/><circle class="cls-2" cx="329.21" cy="131.72" r="0.29"/><circle class="cls-9" cx="329.21" cy="131.72" r="0.21"/><circle class="cls-23" cx="325.87" cy="160.12" r="5.98"/><polyline class="cls-23" points="330.26 164.16 325.95 160.12 325.95 154.05"/><path class="cls-24" d="M325.87,160h6a5.16,5.16,0,0,1-1.63,4.35Z"/><line class="cls-25" x1="328.24" y1="160.28" x2="331.38" y2="157.15"/><line class="cls-25" x1="325.91" y1="159.47" x2="329.82" y2="155.56"/><line class="cls-25" x1="325.84" y1="156.41" x2="327.79" y2="154.46"/><polygon class="cls-26" points="525 134 516.67 134 516.67 128.44 525 128.44 523.33 131.22 525 134"/><line class="cls-26" x1="515" y1="127.89" x2="515" y2="140.11"/><rect class="cls-27" x="518" y="128.44" width="0.78" height="5.56"/><rect class="cls-27" x="519" y="128.44" width="0.78" height="5.56"/><path class="cls-27" d="M477.17,138h-.23v-8.75h.3a.3.3,0,0,0,.23-.11.43.43,0,0,0-.3-.72H462.94a.3.3,0,0,0-.23.11.43.43,0,0,0,.3.72h.19v9H463s-.42,0-.42.27a.34.34,0,0,0,.42.35h6.65v1l-3.23,2.75a.41.41,0,1,0,.54.62l2.9-2.29v1.73s0,.42.25.42.38-.42.38-.42v-1.73l2.77,2.29a.44.44,0,0,0,.27.1.37.37,0,0,0,.31-.15.42.42,0,0,0,0-.58l-3.1-2.75v-1h6.48a.34.34,0,0,0,.42-.35C477.59,138.23,477.17,138,477.17,138ZM464,129.23h12.08v9H464Z"/><path class="cls-27" d="M472.82,132.75a.39.39,0,0,0,.15.56.4.4,0,0,0,.21.06.39.39,0,0,0,.35-.21l1-1.71a.34.34,0,0,0,0-.31.39.39,0,0,0-.19-.25l-1.71-1a.41.41,0,1,0-.42.71l.81.48a10.07,10.07,0,0,0-7,5.42.42.42,0,0,0,.23.54.35.35,0,0,0,.15,0,.45.45,0,0,0,.4-.27,9.18,9.18,0,0,1,6.48-4.94Z"/><path class="cls-27" d="M472.57,135.33a1.54,1.54,0,1,0-1.54,1.54A1.54,1.54,0,0,0,472.57,135.33Zm-2.23,0a.71.71,0,1,1,.71.71A.73.73,0,0,1,470.34,135.33Z"/><path class="cls-27" d="M466.95,132.93v-.58h.58a.43.43,0,0,0,.41-.28.42.42,0,0,0-.39-.56h-.6v-.58a.43.43,0,0,0-.28-.41.42.42,0,0,0-.56.39v.6h-.58a.43.43,0,0,0-.41.28.42.42,0,0,0,.39.56h.6v.6a.42.42,0,0,0,.56.39A.43.43,0,0,0,466.95,132.93Z"/><g id="layer1"><g id="g4305"><g id="g4345"><g id="text2994"><g id="g3830"><g id="g3838"><g id="g3785"><g id="g3790"><path id="rect3813" class="cls-19" d="M437.72,137.55l-.21,2.55h7l-.21-2.55Zm.51.53,0,0h4.37a.13.13,0,1,1,0,.26h-4.34A.13.13,0,0,1,438.23,138.08Zm0,.62h5.46a.13.13,0,1,1,0,.26h-5.44a.13.13,0,0,1,0-.26Zm0,.64h3.47a.13.13,0,1,1,0,.26H438.2a.13.13,0,0,1,0-.26Z"/><path id="rect3821" class="cls-27" d="M437.17,130.78v1.53h-1.53a.27.27,0,0,0-.15,0,.26.26,0,0,0-.09.13h0l-.38,1.25a.26.26,0,0,0,0,.08v4.11a.27.27,0,0,0,.08.18.27.27,0,0,0,.18.07h1.91l.08-.91V136a.13.13,0,0,1,0-.09l.13-.13a.13.13,0,0,1,.08,0h7a.13.13,0,0,1,.09,0l.13.13a.13.13,0,0,1,0,.09v1.26l.08.91h1.91a.27.27,0,0,0,.18-.07.27.27,0,0,0,.08-.18v-1.79h-1.28v-.51H447v-1.81a.25.25,0,0,0,0-.07l-.38-1.26h0a.26.26,0,0,0-.09-.13.27.27,0,0,0-.15,0h-1.53v-1.53h-.38v1.73a.26.26,0,0,1-.07.18l-.26.26a.26.26,0,0,1-.18.08h-5.87a.26.26,0,0,1-.18-.08l-.26-.26a.26.26,0,0,1-.07-.18v-1.73Zm.38,5.23-.05.05v1h7v-1l-.05-.05Z"/><path id="rect3813-1" class="cls-19" d="M438.06,127.9v4.85h5.87V127.9Z"/></g></g></g></g></g></g></g></g><g id="data"><path class="cls-27" d="M399,126.39c-2.41,0-5,.73-5,2.32v6.79c0,1.59,2.59,2.32,5,2.32s5-.73,5-2.32v-6.79C404,127.12,401.41,126.39,399,126.39Zm4.29,9.11c0,.89-1.92,1.61-4.29,1.61s-4.29-.72-4.29-1.61v-1.33c.74.76,2.52,1.16,4.29,1.16s3.55-.4,4.29-1.16Zm0-2h0c0,.88-1.92,1.6-4.29,1.6s-4.29-.71-4.29-1.6h0v-1.33c.74.76,2.52,1.16,4.29,1.16s3.55-.4,4.29-1.16Zm0-2.14h0c0,.88-1.92,1.6-4.29,1.6s-4.29-.71-4.29-1.6h0v-1.23a9.28,9.28,0,0,0,8.57,0Zm-4.26-1c-2.37,0-4.29-.72-4.29-1.61s1.92-1.61,4.29-1.61,4.29.72,4.29,1.61S401.39,130.32,399,130.32Z"/><circle class="cls-27" cx="402.24" cy="135.68" r="0.36"/><circle class="cls-27" cx="402.24" cy="133.54" r="0.36"/><circle class="cls-27" cx="402.24" cy="131.39" r="0.36"/></g><path class="cls-28" d="M375.29,156.22V155.1a.2.2,0,0,0-.13-.19.19.19,0,0,0-.26.18v1.13a.47.47,0,0,0-.27.41.46.46,0,0,0,.93,0A.44.44,0,0,0,375.29,156.22Z"/><path class="cls-28" d="M378.18,156.22V155.1a.2.2,0,0,0-.13-.19.19.19,0,0,0-.26.18v1.13a.47.47,0,0,0-.27.41.46.46,0,0,0,.93,0A.44.44,0,0,0,378.18,156.22Z"/><rect class="cls-28" x="372.59" y="155.59" width="2.12" height="0.39"/><rect class="cls-28" x="375.48" y="155.59" width="2.12" height="0.39"/><path class="cls-28" d="M372.39,156.22V155.1a.2.2,0,0,0-.13-.19.19.19,0,0,0-.26.18v1.13a.47.47,0,0,0-.27.41.46.46,0,1,0,.93,0A.44.44,0,0,0,372.39,156.22Z"/><path class="cls-28" d="M379.54,155.59h-1.25V156h1.25a.58.58,0,0,1,.58.58v1.06H369.89v-1.06a.58.58,0,0,1,.58-.58h1.25v-.39h-1.25a1,1,0,0,0-1,1v6.37a1,1,0,0,0,1,1h9.07a1,1,0,0,0,1-1v-6.37A1,1,0,0,0,379.54,155.59Zm0,7.91h-9.07a.58.58,0,0,1-.58-.58V158h10.23v4.92A.58.58,0,0,1,379.54,163.5Z"/><circle class="cls-29" cx="373.78" cy="159.14" r="0.32"/><circle class="cls-29" cx="372.6" cy="159.14" r="0.32"/><circle class="cls-29" cx="378.49" cy="159.14" r="0.32"/><circle class="cls-29" cx="371.43" cy="160.21" r="0.32"/><circle class="cls-29" cx="372.6" cy="160.21" r="0.32"/><circle class="cls-29" cx="373.78" cy="160.21" r="0.32"/><circle class="cls-29" cx="374.96" cy="160.21" r="0.32"/><circle class="cls-29" cx="376.14" cy="160.21" r="0.32"/><circle class="cls-29" cx="377.3" cy="160.21" r="0.32"/><circle class="cls-29" cx="372.6" cy="161.29" r="0.32"/><circle class="cls-29" cx="373.78" cy="161.29" r="0.32"/><circle class="cls-29" cx="374.96" cy="161.29" r="0.32"/><circle class="cls-29" cx="376.14" cy="161.29" r="0.32"/><circle class="cls-29" cx="377.3" cy="161.29" r="0.32"/><circle class="cls-29" cx="374.96" cy="159.17" r="0.32"/><circle class="cls-29" cx="376.14" cy="159.17" r="0.32"/><circle class="cls-29" cx="377.3" cy="159.17" r="0.32"/><circle class="cls-29" cx="378.48" cy="160.21" r="0.32"/><circle class="cls-29" cx="378.49" cy="161.29" r="0.32"/><circle class="cls-29" cx="371.43" cy="161.26" r="0.32"/><circle class="cls-29" cx="371.43" cy="162.31" r="0.32"/><circle class="cls-29" cx="372.6" cy="162.31" r="0.32"/><circle class="cls-29" cx="373.78" cy="162.31" r="0.32"/><circle class="cls-29" cx="374.96" cy="162.31" r="0.32"/><path class="cls-27" d="M423.27,131.46l-2.32.06-.09-3.48-3.48.09.09,3.48-2.32.06,4.16,4Zm-8,5.42,0,1.16,8.12-.2,0-1.16Z"/><path class="cls-27" d="M378.72,126.8H371.2a1.57,1.57,0,0,0-1.56,1.61v7.76a1.59,1.59,0,0,0,1.56,1.63h7.51a1.59,1.59,0,0,0,1.57-1.63v-7.76A1.58,1.58,0,0,0,378.72,126.8Zm.67,9.37a.68.68,0,0,1-.67.68H371.2a.67.67,0,0,1-.66-.68v-7.76a.66.66,0,0,1,.66-.66h7.51a.66.66,0,0,1,.67.66Z"/><path class="cls-27" d="M377.63,130.72h-3.49a.45.45,0,1,0,0,.9h3.49a.45.45,0,1,0,0-.9Z"/><ellipse class="cls-27" cx="372.4" cy="131.16" rx="0.47" ry="0.48"/><path class="cls-27" d="M377.63,132.58h-3.49a.48.48,0,0,0,0,1h3.49a.48.48,0,0,0,0-1Z"/><ellipse class="cls-27" cx="372.4" cy="133.05" rx="0.47" ry="0.48"/><path class="cls-27" d="M377.63,134.49h-3.49a.48.48,0,0,0,0,1h3.49a.48.48,0,0,0,0-1Z"/><ellipse class="cls-27" cx="372.4" cy="134.95" rx="0.47" ry="0.48"/><path class="cls-27" d="M377.63,128.81H372.2a.48.48,0,0,0,0,1h5.43a.48.48,0,0,0,0-1Z"/><path class="cls-27" d="M413.38,162.38h4.5c.21,0,.38-.13.38-.28v-.56c0-.16-.17-.28-.37-.28h-4.5c-.21,0-.37.13-.37.28v.56C413,162.25,413.17,162.38,413.38,162.38Zm0,1.5h4.5c.21,0,.38-.13.38-.28V163c0-.16-.17-.28-.37-.28h-4.5c-.21,0-.37.13-.37.28v.56C413,163.75,413.17,163.88,413.38,163.88Zm0-3h4.5c.21,0,.38-.13.38-.28V160c0-.16-.17-.28-.37-.28h-4.5c-.21,0-.37.13-.37.28v.56C413,160.75,413.17,160.88,413.38,160.88Zm5.61-.15a.89.89,0,0,0,0-.13V160a1.07,1.07,0,0,0-1.12-1h-1.5a1.88,1.88,0,1,1,2.61,1.73Zm-6-5.1h10.5v6.75H419a1,1,0,0,0,0-.28v-.47h2.25a1.5,1.5,0,0,1,1.5-1.5v-2.25a1.5,1.5,0,0,1-1.5-1.5h-6a1.5,1.5,0,0,1-1.5,1.5V159h-.37a1.24,1.24,0,0,0-.37.06Zm12-1.5v7.5h-.75v-6.75h-10.5v-.75Z"/><g id="Layer_1-11" data-name="Layer 1"><g class="cls-30"><path class="cls-31" d="M403.3,163.52v.4a.5.5,0,0,1,.2.08v-.49c-.06,0-.06-.06-.06-.08"/><path class="cls-31" d="M403.3,163.52V164c.13,0,.12.06.2.09v-.49c-.08,0-.07-.06-.06-.09"/><path class="cls-31" d="M403.3,163.52v.58c.1,0,.08.07,0,.1v-.49c.08,0,.1-.07.11-.1"/><path class="cls-31" d="M403.5,163.71v.49a1.13,1.13,0,0,1-.59.31V164a.58.58,0,0,0,.45-.31"/></g><polygon class="cls-31" points="402.92 163.91 402.92 164.49 396.01 164.49 395.88 163.91 402.92 163.91"/><g class="cls-30"><path class="cls-31" d="M396.09,164.1v.4a.58.58,0,0,1-.59-.58v-.49a.58.58,0,0,0,.59.58"/></g><path class="cls-27" d="M402.91,153.57a.59.59,0,0,1,.59.59v9.36a.59.59,0,0,1-.59.59h-6.82a.59.59,0,0,1-.59-.59v-9.36a.59.59,0,0,1,.59-.59Z"/><path class="cls-2" d="M400.77,154.93h1.56v.59h-1.56Zm-2.15,0h1.56v.59h-1.56Zm-2.15,0H398v.59h-1.56Zm0,1.17H398v.59h-1.56Zm0,1H398v.59h-1.56Zm1.56,1.17v.59h-1.56v-.59Zm-1.56,1.17H398V160h-1.56Zm1.56,1.76h-1.56v-.59H398Zm.59-5.07h1.56v.59h-1.56Zm0,1h1.56v.59h-1.56Zm1.56,1.17v.59h-1.56v-.59Zm-1.56,1.17h1.56V160h-1.56Zm1.56,1.76h-1.56v-.59h1.56Zm.59-5.07h1.56v.59h-1.56Zm.2,1h1.56v.59H401Zm1.56,1.17v.59H401v-.59ZM401,159.42h1.56V160H401Zm1.56,1.76H401v-.59h1.56Z"/></g><path class="cls-26" d="M348.23,134.36V127h7.36v7.36A1.64,1.64,0,0,1,354,136"/><path class="cls-32" d="M352.32,134.36H347a1.64,1.64,0,0,0,1.64,1.64H354A1.64,1.64,0,0,1,352.32,134.36Z"/><path class="cls-33" d="M352.32,134.36H347a1.64,1.64,0,0,0,1.64,1.64H354A1.64,1.64,0,0,1,352.32,134.36Z"/><text class="cls-34" transform="translate(350.89 132.31)">$</text><g id="user_half_settings"><path class="cls-27" d="M496.08,130.45a1.9,1.9,0,1,0-1.9-1.9A1.9,1.9,0,0,0,496.08,130.45Zm3.56,2.71v-1a.93.93,0,0,0-.95-.95H493a.93.93,0,0,0-.95.95v6.63a.93.93,0,0,0,.95.95v1.9h5.69v0l.47,0a4.26,4.26,0,0,0,.47-8.5Zm-.25,7.66a3.26,3.26,0,1,1,3.26-3.26A3.27,3.27,0,0,1,499.4,140.82Z"/><path class="cls-27" d="M501.54,137.87v-.95h-.79a1.63,1.63,0,0,0-.12-.29l.56-.56-.67-.67L500,136a1.63,1.63,0,0,0-.33-.14V135h-.95v.79a1.59,1.59,0,0,0-.31.13l-.54-.54-.67.67.54.54a1.64,1.64,0,0,0-.13.31h-.79v.95h.79a1.61,1.61,0,0,0,.14.33l-.55.55.67.67.56-.56a1.59,1.59,0,0,0,.29.12v.79h.95V139a1.59,1.59,0,0,0,.31-.13l.57.57.67-.67-.57-.57a1.67,1.67,0,0,0,.13-.31Zm-2.14.4a.71.71,0,1,1,.71-.71A.71.71,0,0,1,499.4,138.27Z"/></g><path class="cls-27" d="M351.72,158.32a18.73,18.73,0,0,0-4.38-2.93,20.22,20.22,0,0,0,3.11,4.16,16,16,0,0,0-3.07,4.51,25,25,0,0,0,4.34-3.24,26.58,26.58,0,0,0,4,3,6,6,0,0,1-4.38,1.88,6,6,0,0,1,0-12,6.12,6.12,0,0,1,4.38,1.88A19.72,19.72,0,0,0,351.72,158.32Zm1.27,1.27a18,18,0,0,0,2.85-3.81,6,6,0,0,1,1.49,3.94,5.93,5.93,0,0,1-1.49,3.94A16,16,0,0,0,353,159.59Z"/><polygon class="cls-27" points="434.56 154.64 436.68 154.29 436.68 162.57 434.56 162.19 434.56 154.64"/><polygon class="cls-27" points="436.98 154.35 438.96 154.01 438.96 162.99 436.98 162.51 436.98 154.35"/><polygon class="cls-27" points="439.41 154 447 155.51 447 161.29 439.41 163 439.41 154"/><path class="cls-2" d="M435.23,158H436a.24.24,0,0,1,.22.25v0a.24.24,0,0,1-.22.25h-.78a.24.24,0,0,1-.22-.25v0A.24.24,0,0,1,435.23,158Z"/><path class="cls-2" d="M437.59,158h.78a.24.24,0,0,1,.22.25v0a.24.24,0,0,1-.22.25h-.78a.24.24,0,0,1-.22-.25v0A.24.24,0,0,1,437.59,158Z"/><rect class="cls-2" x="440.02" y="154.78" width="0.61" height="7.26"/><rect class="cls-2" x="441.54" y="155.31" width="0.61" height="6.38"/><rect class="cls-2" x="443.05" y="155.49" width="0.61" height="5.85"/><rect class="cls-2" x="444.42" y="155.84" width="0.61" height="5.14"/><rect class="cls-2" x="445.94" y="156.2" width="0.61" height="4.43"/><polygon class="cls-27" points="533.09 129.27 533.09 127.92 536.72 127.92 536.72 137.98 547.42 137.98 547.42 139.47 535.23 139.47 535.23 129.18 533.09 129.27"/><rect class="cls-27" x="538.01" y="126" width="7.49" height="4.28" rx="1.07" ry="1.07"/><rect class="cls-27" x="538.86" y="131.35" width="10.05" height="5.56" rx="1.07" ry="1.07"/><circle class="cls-27" cx="538.5" cy="139.78" r="1.46"/><circle class="cls-27" cx="544.61" cy="139.78" r="1.46"/></svg>