<svg id="Layer_1" data-name="Layer 1" xmlns="http://www.w3.org/2000/svg" width="23.85" height="30" viewBox="0 0 23.85 30"><defs><style>.cls-1{fill:#424242;}</style></defs><title>report</title><path class="cls-1" d="M19,0H2.9V30H26.75V7.75Zm3.75,7.07H19.68V4ZM5.24,27.66V2.34h12.1v5.9a1.18,1.18,0,0,0,1.17,1.17h5.9V27.66Z" transform="translate(-2.9)"/><rect class="cls-1" x="5.22" y="23.25" width="13.42" height="1.56"/><rect class="cls-1" x="5.22" y="8.6" width="7.97" height="1.56"/><polygon class="cls-1" points="15.84 13.56 16.71 13.56 13.37 16.91 10.75 14.29 4.98 20.07 6.08 21.17 10.75 16.5 13.37 19.11 17.81 14.67 17.81 15.53 19.37 15.53 19.37 12 15.84 12 15.84 13.56"/><rect class="cls-1" x="5.22" y="5.19" width="7.97" height="1.56"/></svg>