<?xml version="1.0" encoding="utf-8"?>
<!-- Generator: Adobe Illustrator 22.0.1, SVG Export Plug-In . SVG Version: 6.00 Build 0)  -->
<svg version="1.1" id="Layer_1" xmlns="http://www.w3.org/2000/svg" xmlns:xlink="http://www.w3.org/1999/xlink" x="0px" y="0px"
	 viewBox="0 0 30 30" style="enable-background:new 0 0 30 30;" xml:space="preserve">
<style type="text/css">
	.st0{fill:#DB2D27;}
	.st1{fill:#FFFFFF;}
	.st2{fill:#DB2F27;}
</style>
<g>
	<g>
		<circle class="st0" cx="14.9" cy="14.7" r="14.3"/>
		<circle class="st1" cx="14.9" cy="14.7" r="12.9"/>
	</g>
	<g transform="matrix(.02146 0 0 .02146 1 1)">
		<path class="st2" d="M646.4,401.7c-149.9,0-279,88.4-338.4,215.8c-1.8,3.9-1.8,8.4,0,12.3c59.3,127.5,188.6,215.8,338.4,215.8
			s279-88.4,338.4-215.8c1.8-3.9,1.8-8.4,0-12.3C925.6,490.1,796.4,401.7,646.4,401.7 M646.4,776.9c-84.7,0-153.2-68.6-153.2-153.2
			c0-84.7,68.6-153.2,153.2-153.2c84.7,0,153.2,68.6,153.2,153.2S731,776.9,646.4,776.9"/>
		<circle class="st2" cx="646.4" cy="623.6" r="98.1"/>
	</g>
</g>
</svg>
